<?xml version="1.0" encoding="UTF-8"?>
<svg xmlns="http://www.w3.org/2000/svg" xmlns:xlink="http://www.w3.org/1999/xlink" viewBox="0 0 256 256">
  <defs>
    <style>
      .cls-1 {
        fill: url(#linear-gradient-7);
      }

      .cls-1, .cls-2, .cls-3, .cls-4, .cls-5, .cls-6, .cls-7, .cls-8, .cls-9, .cls-10, .cls-11, .cls-12, .cls-13, .cls-14, .cls-15, .cls-16, .cls-17, .cls-18, .cls-19, .cls-20, .cls-21, .cls-22, .cls-23, .cls-24, .cls-25, .cls-26, .cls-27, .cls-28, .cls-29, .cls-30, .cls-31, .cls-32, .cls-33, .cls-34, .cls-35, .cls-36, .cls-37, .cls-38, .cls-39, .cls-40, .cls-41, .cls-42, .cls-43, .cls-44, .cls-45, .cls-46, .cls-47, .cls-48, .cls-49 {
        stroke-width: 0px;
      }

      .cls-1, .cls-32 {
        mix-blend-mode: multiply;
      }

      .cls-2 {
        fill: url(#linear-gradient);
      }

      .cls-3 {
        fill: url(#linear-gradient-33);
      }

      .cls-4 {
        fill: url(#linear-gradient-29);
      }

      .cls-5 {
        fill: url(#linear-gradient-32);
      }

      .cls-6 {
        fill: url(#linear-gradient-30);
      }

      .cls-7 {
        fill: url(#linear-gradient-31);
      }

      .cls-8 {
        fill: url(#linear-gradient-36);
      }

      .cls-9 {
        fill: url(#linear-gradient-34);
      }

      .cls-10 {
        fill: url(#linear-gradient-37);
      }

      .cls-11 {
        fill: url(#linear-gradient-35);
      }

      .cls-12 {
        fill: url(#linear-gradient-28);
      }

      .cls-13 {
        fill: url(#linear-gradient-25);
      }

      .cls-14 {
        fill: url(#linear-gradient-11);
      }

      .cls-15 {
        fill: url(#linear-gradient-12);
      }

      .cls-16 {
        fill: url(#linear-gradient-13);
      }

      .cls-17 {
        fill: url(#linear-gradient-10);
      }

      .cls-18 {
        fill: url(#linear-gradient-17);
      }

      .cls-19 {
        fill: url(#linear-gradient-16);
      }

      .cls-20 {
        fill: url(#linear-gradient-19);
      }

      .cls-21 {
        fill: url(#linear-gradient-15);
      }

      .cls-22 {
        fill: url(#linear-gradient-23);
      }

      .cls-23 {
        fill: url(#linear-gradient-21);
      }

      .cls-24 {
        fill: url(#linear-gradient-18);
      }

      .cls-25 {
        fill: url(#linear-gradient-14);
      }

      .cls-26 {
        fill: url(#linear-gradient-22);
      }

      .cls-27 {
        fill: url(#linear-gradient-20);
      }

      .cls-28 {
        fill: url(#linear-gradient-27);
      }

      .cls-29 {
        fill: url(#linear-gradient-24);
      }

      .cls-30 {
        fill: url(#linear-gradient-26);
      }

      .cls-31 {
        fill: url(#linear-gradient-5);
        opacity: .93;
      }

      .cls-32 {
        fill: url(#_ÅÂÁ_Ï_ÌÌ_È_ËÂÌÚ_153);
        opacity: .3;
      }

      .cls-33 {
        fill: url(#linear-gradient-4);
      }

      .cls-34 {
        fill: url(#linear-gradient-2);
      }

      .cls-35 {
        fill: url(#linear-gradient-3);
      }

      .cls-36 {
        fill: url(#linear-gradient-8);
      }

      .cls-37 {
        fill: url(#linear-gradient-9);
      }

      .cls-38 {
        fill: url(#linear-gradient-6);
      }

      .cls-50 {
        isolation: isolate;
      }

      .cls-40 {
        fill: url(#radial-gradient);
        mix-blend-mode: screen;
      }

      .cls-41 {
        fill: #5461dd;
      }

      .cls-42 {
        fill: #0bddff;
      }

      .cls-43 {
        fill: #160a2d;
      }

      .cls-44 {
        fill: #ff7fcb;
      }

      .cls-45 {
        fill: #fff;
      }

      .cls-46 {
        fill: #ffda00;
      }

      .cls-47 {
        fill: #ffbe06;
      }

      .cls-48 {
        fill: red;
      }

      .cls-49 {
        fill: lime;
      }
    </style>
    <linearGradient id="linear-gradient" x1="164.41" y1="33.79" x2="170.37" y2="66.15" gradientUnits="userSpaceOnUse">
      <stop offset="0" stop-color="#d4faff"/>
      <stop offset=".93" stop-color="#769ad6"/>
    </linearGradient>
    <radialGradient id="radial-gradient" cx="167.29" cy="30.47" fx="167.29" fy="30.47" r="29.8" gradientUnits="userSpaceOnUse">
      <stop offset="0" stop-color="#6fff6a" stop-opacity=".8"/>
      <stop offset=".05" stop-color="#67ff62" stop-opacity=".75"/>
      <stop offset=".36" stop-color="#3bff38" stop-opacity=".43"/>
      <stop offset=".62" stop-color="#1bff1a" stop-opacity=".2"/>
      <stop offset=".81" stop-color="#07ff07" stop-opacity=".05"/>
      <stop offset=".91" stop-color="lime" stop-opacity="0"/>
    </radialGradient>
    <linearGradient id="linear-gradient-2" x1="160.15" y1="56.33" x2="179.86" y2="64.22" gradientUnits="userSpaceOnUse">
      <stop offset="0" stop-color="#d4faff"/>
      <stop offset=".99" stop-color="#769ad6"/>
    </linearGradient>
    <linearGradient id="linear-gradient-3" x1="165.53" y1="55.08" x2="166.87" y2="66.4" gradientUnits="userSpaceOnUse">
      <stop offset="0" stop-color="#d4faff"/>
      <stop offset=".72" stop-color="#769ad6"/>
    </linearGradient>
    <linearGradient id="linear-gradient-4" x1="127.32" y1="57.53" x2="128.59" y2="211.05" xlink:href="#linear-gradient-2"/>
    <linearGradient id="linear-gradient-5" x1="127.64" y1="148.95" x2="140.2" y2="245.86" gradientUnits="userSpaceOnUse">
      <stop offset=".14" stop-color="#94b1ff" stop-opacity=".86"/>
      <stop offset=".32" stop-color="#7ea0e2" stop-opacity=".96"/>
      <stop offset=".64" stop-color="#769ad6"/>
    </linearGradient>
    <linearGradient id="linear-gradient-6" x1="128.29" y1="158.87" x2="128.29" y2="84.27" gradientUnits="userSpaceOnUse">
      <stop offset="0" stop-color="#fff"/>
      <stop offset=".97" stop-color="#dbdbf2"/>
    </linearGradient>
    <linearGradient id="linear-gradient-7" x1="128.29" y1="158.87" x2="128.29" y2="84.27" gradientUnits="userSpaceOnUse">
      <stop offset="0" stop-color="#e6fbff"/>
      <stop offset=".99" stop-color="#7192c7"/>
    </linearGradient>
    <linearGradient id="linear-gradient-8" x1="115.03" y1="171.68" x2="114.97" y2="164.54" gradientUnits="userSpaceOnUse">
      <stop offset=".01" stop-color="#5c4185"/>
      <stop offset=".98" stop-color="#1b1240"/>
    </linearGradient>
    <linearGradient id="linear-gradient-9" x1="118.21" y1="171.66" x2="118.15" y2="164.52" xlink:href="#linear-gradient-8"/>
    <linearGradient id="linear-gradient-10" x1="121.19" y1="171.63" x2="121.13" y2="164.49" xlink:href="#linear-gradient-8"/>
    <linearGradient id="linear-gradient-11" x1="124.15" y1="171.61" x2="124.09" y2="164.47" xlink:href="#linear-gradient-8"/>
    <linearGradient id="linear-gradient-12" x1="127.33" y1="171.58" x2="127.27" y2="164.44" xlink:href="#linear-gradient-8"/>
    <linearGradient id="linear-gradient-13" x1="130.63" y1="171.55" x2="130.57" y2="164.41" xlink:href="#linear-gradient-8"/>
    <linearGradient id="linear-gradient-14" x1="134.72" y1="171.52" x2="134.66" y2="164.38" xlink:href="#linear-gradient-8"/>
    <linearGradient id="linear-gradient-15" x1="138.61" y1="171.49" x2="138.55" y2="164.35" xlink:href="#linear-gradient-8"/>
    <linearGradient id="linear-gradient-16" x1="141.27" y1="171.47" x2="141.21" y2="164.33" xlink:href="#linear-gradient-8"/>
    <linearGradient id="linear-gradient-17" x1="93.19" y1="180.69" x2="86.66" y2="168.08" xlink:href="#linear-gradient-8"/>
    <linearGradient id="_ÅÂÁ_Ï_ÌÌ_È_ËÂÌÚ_153" data-name="ÅÂÁ˚ÏﬂÌÌ˚È „‡‰ËÂÌÚ 153" x1="164.81" y1="244.39" x2="92.69" y2="244.08" gradientUnits="userSpaceOnUse">
      <stop offset="0" stop-color="#9d68c2"/>
      <stop offset="1" stop-color="#ccedff"/>
    </linearGradient>
    <linearGradient id="linear-gradient-18" x1="210" y1="204.84" x2="60.07" y2="71.63" xlink:href="#linear-gradient-8"/>
    <linearGradient id="linear-gradient-19" x1="171.53" y1="254.84" x2="35.32" y2="96.93" xlink:href="#linear-gradient-8"/>
    <linearGradient id="linear-gradient-20" x1="139.5" y1="209.65" x2="115.37" y2="168.02" xlink:href="#linear-gradient-8"/>
    <linearGradient id="linear-gradient-21" x1="128.44" y1="196.98" x2="128.35" y2="183.45" gradientUnits="userSpaceOnUse">
      <stop offset="0" stop-color="#5c4185"/>
      <stop offset="1" stop-color="#1b1240"/>
    </linearGradient>
    <linearGradient id="linear-gradient-22" x1="128.53" y1="144.96" x2="128.35" y2="135.02" gradientUnits="userSpaceOnUse">
      <stop offset=".02" stop-color="gray"/>
      <stop offset=".95" stop-color="#000"/>
    </linearGradient>
    <linearGradient id="linear-gradient-23" x1="155.24" y1="117.4" x2="155.24" y2="139.63" gradientUnits="userSpaceOnUse">
      <stop offset=".16" stop-color="#ff9191" stop-opacity="0"/>
      <stop offset=".5" stop-color="#ff777e" stop-opacity=".7"/>
      <stop offset=".66" stop-color="#ff6c77"/>
    </linearGradient>
    <linearGradient id="linear-gradient-24" x1="100.93" y1="117.4" x2="100.93" y2="139.63" xlink:href="#linear-gradient-23"/>
    <linearGradient id="linear-gradient-25" x1="128.49" y1="127.31" x2="128.49" y2="87.34" gradientUnits="userSpaceOnUse">
      <stop offset="0" stop-color="#fff" stop-opacity="0"/>
      <stop offset=".21" stop-color="#fff" stop-opacity=".32"/>
      <stop offset=".52" stop-color="#fff" stop-opacity=".81"/>
      <stop offset=".66" stop-color="#fff"/>
    </linearGradient>
    <linearGradient id="linear-gradient-26" x1="149.86" y1="152.36" x2="153.92" y2="165.51" gradientTransform="translate(-69.6 118.92) rotate(-38.64)" xlink:href="#linear-gradient-2"/>
    <linearGradient id="linear-gradient-27" x1="140.92" y1="155.4" x2="147.3" y2="166.52" gradientTransform="translate(-69.6 118.92) rotate(-38.64)" xlink:href="#linear-gradient-2"/>
    <linearGradient id="linear-gradient-28" x1="160.12" y1="156.89" x2="159.42" y2="166.59" gradientTransform="translate(-69.6 118.92) rotate(-38.64)" xlink:href="#linear-gradient-2"/>
    <linearGradient id="linear-gradient-29" x1="172.05" y1="171.84" x2="163.84" y2="174.96" gradientTransform="translate(-69.6 118.92) rotate(-38.64)" xlink:href="#linear-gradient-2"/>
    <linearGradient id="linear-gradient-30" x1="147.23" y1="146.62" x2="166.89" y2="177.52" gradientTransform="translate(2.24 1.9) rotate(-.21)" gradientUnits="userSpaceOnUse">
      <stop offset="0" stop-color="#d2f9ff"/>
      <stop offset=".96" stop-color="#618dd6"/>
    </linearGradient>
    <linearGradient id="linear-gradient-31" x1="111.1" y1="-631.95" x2="117.36" y2="-610.58" gradientTransform="translate(165.16 787.93) rotate(-11.28)" gradientUnits="userSpaceOnUse">
      <stop offset="0" stop-color="#d4faff"/>
      <stop offset=".64" stop-color="#769ad6"/>
    </linearGradient>
    <linearGradient id="linear-gradient-32" x1="71.22" y1="89.5" x2="75.28" y2="102.65" gradientTransform="translate(225.87 118.92) rotate(-141.36) scale(1 -1)" xlink:href="#linear-gradient-2"/>
    <linearGradient id="linear-gradient-33" x1="62.27" y1="92.53" x2="68.65" y2="103.66" gradientTransform="translate(225.87 118.92) rotate(-141.36) scale(1 -1)" xlink:href="#linear-gradient-2"/>
    <linearGradient id="linear-gradient-34" x1="81.47" y1="94.03" x2="80.78" y2="103.72" gradientTransform="translate(225.87 118.92) rotate(-141.36) scale(1 -1)" xlink:href="#linear-gradient-2"/>
    <linearGradient id="linear-gradient-35" x1="93.4" y1="108.98" x2="85.19" y2="112.09" gradientTransform="translate(225.87 118.92) rotate(-141.36) scale(1 -1)" xlink:href="#linear-gradient-2"/>
    <linearGradient id="linear-gradient-36" x1="95.05" y1="146.87" x2="100.45" y2="180.14" gradientUnits="userSpaceOnUse">
      <stop offset="0" stop-color="#d2f9ff"/>
      <stop offset=".99" stop-color="#618dd6"/>
    </linearGradient>
    <linearGradient id="linear-gradient-37" x1="29.09" y1="-679.11" x2="35.36" y2="-657.74" gradientTransform="translate(41.78 822.71) rotate(-172.17) scale(1 -1)" xlink:href="#linear-gradient-31"/>
  </defs>
  <g class="cls-50">
    <g id="Layer_2" data-name="Layer 2">
      <g>
        <g>
          <rect class="cls-2" x="165.71" y="33.55" width="1.65" height="23.51"/>
          <circle class="cls-40" cx="166.53" cy="30.2" r="30.2"/>
          <circle class="cls-49" cx="166.53" cy="30.2" r="4.72"/>
        </g>
        <g>
          <path class="cls-34" d="m172.64,62.22c.02-.2.03-.4.03-.61h0c0-3.6-2.92-6.52-6.52-6.52h0c-3.16,0-5.79,2.24-6.39,5.22l12.88,1.9Z"/>
          <path class="cls-35" d="m172.67,61.61c0,.21-.01.41-.03.61l-12.88-1.9c.09-.46.24-.91.42-1.32,3.15.25,7.78.83,12.47,2.16.02.15.02.31.02.46Z"/>
          <path class="cls-45" d="m162.84,56.77s-.06.1-.07.16c-.02.13.07.26.18.32s.25.08.38.09c.69.06,1.39.1,2.08.09.35,0,.73-.02,1.02-.23.22-.16.37-.43.36-.71s-.16-.55-.4-.68c-.14-.07-.29-.1-.44-.12-1.05-.14-2.49.11-3.11,1.07Z"/>
        </g>
        <path class="cls-33" d="m66.31,206.44c-17.97-46.92-9.39-105.38-4.69-127.27,1.5-6.98,6.62-12.61,13.41-14.81,25.1-8.14,81.14-8.5,106.84.23,6.72,2.29,11.76,7.91,13.23,14.86,4.67,22.19,11.45,87.64-4.57,126.99-1.99,4.89-122.31,4.96-124.21,0Z"/>
        <path class="cls-31" d="m200.34,152.74c-.8,19.13-3.58,38.39-9.81,53.7-1.99,4.89-122.32,4.96-124.21,0-2.51-6.56-4.51-13.35-6.06-20.23,2.78.9,5.38,1.78,7.37,2.13,18.28,3.17,37.07,2.28,55.32-.59,27.5-4.34,55.26-13.66,75.33-32.96.7-.68,1.39-1.36,2.06-2.05Z"/>
        <g>
          <g>
            <g>
              <path class="cls-45" d="m183.57,169.67c-.43,0-.86-.17-1.19-.46-.37.26-.78.4-1.19.4-.21,0-.42-.04-.62-.11-.43-.16-.76-.47-.95-.88,0,0,0,0,0,0-.14.03-.28.05-.43.05-.71,0-1.37-.37-1.68-.94-.32-.59-.19-1.22-.12-1.52.1-.45.21-.91.35-1.37-1.55-1.35-2.23-3.05-1.83-4.64.52-2.1,2.76-3.45,5.7-3.45.79,0,1.59.1,2.38.3,3.85.96,6.33,3.85,5.65,6.58-.41,1.64-1.92,2.86-4.02,3.28-.14.55-.31,1.07-.51,1.57-.1.24-.32.79-.9,1.06-.2.09-.41.14-.64.14h0Z"/>
              <path class="cls-45" d="m188.78,163.41c.55-2.22-1.69-4.68-5.01-5.51s-6.46.3-7.01,2.51c-.36,1.44.47,2.99,2,4.12-.21.61-.39,1.23-.52,1.86-.06.31-.12.64.04.92.2.37.71.54,1.14.45.43-.09.71-.55.96-.77-.02.32-.11.63-.06.94.05.32.23.61.55.73.44.16.88-.05,1.2-.36.2-.19.38-.41.51-.65.1.29.12.65.35.87s.6.33.89.2c.24-.11.36-.36.45-.59.27-.65.46-1.32.6-2.01,1.98-.24,3.52-1.23,3.89-2.72Z"/>
            </g>
            <path class="cls-43" d="m180.93,168.91s-.08-.02-.12-.04c-.37-.14-.63-.48-.69-.9-.02-.13-.02-.26,0-.38-.17.17-.38.32-.64.38-.55.12-1.14-.12-1.38-.55-.19-.35-.13-.73-.06-1.07.12-.57.28-1.16.47-1.74-1.59-1.23-2.32-2.81-1.96-4.25.58-2.33,3.84-3.52,7.27-2.67,3.43.86,5.74,3.44,5.16,5.77-.37,1.48-1.87,2.57-3.92,2.86-.14.67-.34,1.31-.58,1.9-.08.19-.22.54-.56.7-.4.18-.86,0-1.12-.24-.16-.15-.24-.34-.29-.53-.09.11-.18.21-.28.31-.41.39-.88.54-1.3.44Zm-.48-2.12s.03,0,.04.02c.08.04.12.12.12.2,0,.12-.02.23-.04.34-.03.19-.05.38-.03.56.02.13.1.44.42.56.42.15.82-.17.97-.31.19-.18.35-.38.48-.6.04-.07.12-.11.2-.11.09,0,.15.06.18.14.03.09.05.18.08.28.05.2.1.39.22.51.16.15.44.26.65.16.16-.07.25-.24.35-.48.25-.61.44-1.27.59-1.97.02-.09.09-.16.18-.17,1.95-.24,3.37-1.22,3.71-2.56.52-2.1-1.65-4.45-4.85-5.25-3.2-.8-6.23.26-6.75,2.35-.33,1.31.39,2.77,1.92,3.9.07.06.11.15.07.24-.21.61-.38,1.23-.51,1.83-.06.27-.1.56.02.78.14.27.55.42.91.34.24-.05.44-.27.62-.47.09-.09.17-.18.25-.25.05-.05.12-.06.19-.04Z"/>
          </g>
          <ellipse class="cls-43" cx="180.68" cy="162.7" rx="1.25" ry="1.49" transform="translate(-19.96 25.36) rotate(-7.61)"/>
          <ellipse class="cls-43" cx="184.04" cy="163.56" rx="1.49" ry="1.25" transform="translate(-56.14 217.74) rotate(-54.34)"/>
        </g>
        <g>
          <path class="cls-45" d="m85.38,193.63c-.14-1,0-2.14.18-3.13.17-.71.58-1.91-.51-1.97-1.01-.15-2.01-.47-2.95-.93-.5-.95-2.13-1.3-2.57-.13-.22-.21-.48-.38-.77-.48.17-.58-.03-1.16-.67-1.29-.56-.17-1.18-.94-1.8-.49-4.14-3.14-6.5,5.23-1.71,5.68-1.31.7-1.53,2.59-1.04,3.87.5,1.13,2.14,1.95,3.31,1.38.36,1.22,2,2.52,3.22,1.68-.33,1.13,1.02,1.21,1.77,1.47,1.65.6,1.15-1.39,1.21-2.34.73.09.91-.72.85-1.29.05-.3.15-.61.11-.92.94.29,1.46-.11,1.38-1.09Z"/>
          <g>
            <g>
              <path class="cls-39" d="m76.29,186.84c-.03-.11-.08-.23-.14-.35-.06-.12-.14-.24-.24-.35-.1-.11-.22-.22-.36-.31-.15-.1-.32-.18-.5-.24-.21-.07-.42-.1-.62-.08-.2.02-.39.07-.56.15-.17.08-.34.2-.48.34-.14.14-.27.29-.38.47-.11.17-.2.35-.27.55-.07.19-.12.39-.14.59-.02.18-.02.36,0,.53.02.18.05.35.1.52.05.17.12.33.21.48.09.15.19.29.32.42.12.12.27.24.42.34.16.1.33.17.52.23.15.05.29.08.43.09.1.01.2.01.29,0,.23-.01.42-.06.59-.15.17-.09.31-.22.41-.38.1-.16.17-.35.19-.55.02-.15.01-.31-.01-.46-.02-.16-.07-.3-.14-.43,0-.02-.03-.03-.05-.03-.02,0-.04.02-.05.04-.04.12-.09.2-.16.25-.07.05-.15.09-.23.1-.08.02-.17.02-.25,0-.08-.01-.15-.03-.2-.05-.04-.01-.09-.03-.14-.06-.05-.03-.1-.06-.16-.1-.05-.04-.1-.09-.15-.15-.05-.05-.09-.12-.12-.19-.03-.07-.06-.16-.07-.25-.02-.09-.02-.2,0-.32.02-.18.05-.32.09-.43.04-.11.09-.2.14-.27.05-.06.1-.11.16-.14.06-.03.11-.05.16-.05.05,0,.1,0,.13,0,.04,0,.07.02.1.02.04.01.07.03.09.05.02.02.04.04.06.06.01.02.02.04.03.06,0,.02,0,.03,0,.05,0,.03-.01.05-.03.06-.02.01-.05,0-.1,0-.02,0-.05-.02-.07-.04-.02-.01-.03-.03-.05-.06-.02-.02-.03-.06-.03-.09,0-.02-.02-.03-.03-.04-.02,0-.04,0-.05,0-.06.05-.11.11-.14.19-.03.07-.06.16-.07.24-.01.09,0,.18.01.27.02.09.05.18.1.26.05.08.11.16.2.23.08.07.18.13.31.17.14.05.27.07.38.06.12-.01.22-.05.31-.11.09-.06.16-.13.21-.23.05-.09.09-.19.1-.3h0c0-.08.01-.17,0-.27,0-.1-.03-.21-.06-.32Z"/>
              <path class="cls-39" d="m79.42,191.32c.01-.2.03-.39.05-.59.02-.2.04-.39.06-.57.03-.27.03-.52,0-.75-.03-.23-.08-.43-.16-.61-.08-.18-.18-.34-.3-.47-.12-.13-.26-.24-.42-.31-.16-.08-.31-.12-.47-.12-.12,0-.24.04-.36.11.02-.1.03-.2.05-.3.02-.13.05-.26.07-.37.02-.11.05-.21.07-.3.02-.09.05-.16.07-.22,0-.01,0-.03,0-.04,0-.01-.02-.02-.03-.03-.04-.01-.08-.03-.13-.05-.04-.02-.09-.04-.15-.07-.06-.03-.13-.06-.2-.1-.11-.05-.24-.12-.39-.2-.14-.07-.29-.16-.47-.27-.02-.01-.04-.01-.06,0-.02.01-.02.04-.02.06.02.04.03.11.03.19,0,.08.01.18.01.29,0,.11,0,.22,0,.35,0,.12-.01.25-.02.37-.02.29-.04.6-.08.92l-.02.14c0,.07-.02.16-.03.26-.01.1-.03.22-.05.35-.02.13-.04.26-.06.4-.02.14-.05.27-.08.4-.03.13-.06.26-.09.37-.03.11-.06.21-.1.3-.03.08-.06.14-.1.18-.01.01-.02.03-.01.05,0,.02.02.03.04.04.2.06.4.13.59.21.17.07.33.14.47.21.07.04.14.07.2.1.06.03.11.06.15.08.05.03.09.05.13.07.02,0,.04,0,.06,0,.02-.01.03-.03.02-.05-.02-.14-.04-.29-.05-.46,0-.17-.01-.35-.01-.54,0-.19,0-.39.02-.58.01-.2.03-.39.04-.59.03-.05.07-.1.1-.15.03-.05.07-.09.1-.12.03-.03.06-.05.09-.06.02,0,.04,0,.05,0,.04.02.08.05.1.09.03.04.06.09.07.15.02.06.03.12.04.18,0,.06.01.13.02.19,0,.06,0,.11,0,.16,0,.05,0,.09,0,.12-.02.2-.05.38-.07.56-.02.17-.05.34-.09.5-.03.15-.07.3-.11.44-.04.13-.09.26-.15.38,0,.01,0,.03,0,.04,0,.01.02.03.03.03.09.03.2.08.32.13.12.05.25.12.38.18.14.07.28.14.41.22.14.08.26.15.37.22,0,0,.01,0,.02,0,.01,0,.02,0,.03,0,.02-.01.03-.03.02-.05-.02-.15-.03-.31-.04-.49,0-.18,0-.37.02-.56Z"/>
              <path class="cls-39" d="m81.12,192.54c-.01-.17-.02-.35-.02-.52,0-.17,0-.34.02-.51.01-.17.03-.34.04-.5.03-.28.08-.54.13-.78.05-.23.11-.43.17-.59,0-.01,0-.03,0-.04,0-.01-.02-.02-.03-.03-.04-.01-.08-.03-.13-.04-.04-.01-.09-.03-.15-.06-.06-.02-.13-.05-.2-.09-.12-.05-.25-.12-.39-.2-.14-.08-.3-.18-.46-.29-.02-.01-.04-.01-.06,0-.02.01-.03.04-.02.06.02.05.03.11.03.18,0,.07.01.16.02.25,0,.09,0,.19,0,.29,0,.1,0,.2,0,.3-.01.23-.03.47-.05.73,0,.01,0,.04-.01.08v.06c-.02.08-.03.17-.05.27-.02.11-.04.22-.06.35-.02.12-.05.25-.09.37-.03.12-.07.23-.11.32-.04.09-.08.17-.12.22-.01.01-.02.03-.01.05,0,.02.02.03.03.04.21.07.41.15.59.22.19.08.35.15.48.21.07.03.14.06.2.09l.15.07s.09.05.13.07c0,0,.01,0,.02,0,.01,0,.03,0,.04-.01.02-.01.02-.03.02-.05-.03-.17-.05-.34-.06-.51Z"/>
              <path class="cls-39" d="m80.26,188.76c.06.1.13.18.22.26.09.08.18.14.28.19.09.04.18.07.26.08.01,0,.03,0,.04,0,.1,0,.19,0,.27-.04.08-.03.15-.09.2-.16.05-.07.08-.16.1-.26.01-.1,0-.2-.03-.3-.03-.1-.07-.2-.14-.29-.06-.09-.13-.18-.22-.25-.08-.08-.18-.14-.28-.19-.1-.05-.2-.08-.3-.08-.1,0-.19,0-.27.04-.08.03-.15.08-.2.15-.05.07-.08.15-.1.25-.01.1,0,.2.03.3.03.1.07.2.13.3Z"/>
              <path class="cls-39" d="m82.87,193.15c0-.2,0-.42,0-.65,0-.23.02-.47.04-.71.02-.24.04-.48.07-.71.02-.2.05-.4.08-.6.03-.2.06-.37.09-.53.03-.16.06-.31.09-.44.03-.13.06-.23.09-.31,0-.01,0-.03,0-.05,0-.01-.02-.02-.04-.03-.04,0-.08-.02-.13-.03-.04,0-.09-.02-.16-.04-.06-.02-.13-.04-.21-.07-.12-.04-.25-.1-.39-.16-.15-.07-.3-.15-.47-.25-.02-.01-.04,0-.06,0s-.02.04-.02.06c.02.04.03.11.03.19,0,.08.01.18.01.29,0,.11,0,.23,0,.35,0,.12-.01.24-.02.36-.02.28-.04.59-.08.92l-.02.14c0,.07-.02.16-.03.26-.01.1-.03.22-.05.35-.02.13-.04.26-.06.4-.02.14-.05.27-.08.4-.03.13-.06.25-.09.37-.03.11-.06.21-.1.3-.03.08-.07.14-.1.18-.01.01-.02.03-.01.05,0,.02.02.03.04.04.23.06.42.12.59.18.18.06.34.11.48.16.07.03.14.05.2.07l.15.05s.09.04.13.05c0,0,0,0,.01,0,.01,0,.03,0,.04-.01.01-.01.02-.03.02-.05-.03-.16-.05-.34-.05-.54Z"/>
              <path class="cls-39" d="m84.68,194.07c-.03-.15-.05-.32-.06-.52,0-.2-.01-.41,0-.64,0-.22.02-.46.04-.7.02-.24.04-.48.07-.71.02-.21.05-.41.08-.6.03-.2.06-.38.09-.54.03-.17.06-.32.1-.45.03-.13.06-.24.09-.32,0-.02,0-.03,0-.05-.01-.01-.03-.02-.04-.02-.04,0-.08,0-.14,0-.04,0-.09,0-.16-.01-.07,0-.14-.02-.21-.03-.12-.02-.26-.06-.4-.1-.15-.04-.31-.1-.47-.18-.02,0-.04,0-.06,0-.02.01-.02.04-.01.06.02.04.03.1.03.18,0,.08.01.17.01.28,0,.11,0,.22,0,.34,0,.12-.01.24-.02.36-.02.28-.04.59-.08.92l-.02.14c0,.07-.02.16-.03.26-.01.1-.03.22-.05.35-.02.13-.04.26-.06.4-.02.14-.05.27-.08.41-.03.13-.06.26-.09.38-.03.12-.06.22-.1.31-.03.09-.07.15-.1.19-.01.01-.01.04,0,.05,0,.02.02.03.04.03.22.03.42.06.6.09l.2.03c.11.02.2.03.29.05.08.01.14.02.2.04l.15.03c.05.01.1.02.13.03,0,0,0,0,0,0,.02,0,.03,0,.04-.02.01-.01.02-.03.01-.05Z"/>
            </g>
            <g>
              <path class="cls-39" d="m77.14,193.39c-.04-.16-.09-.32-.15-.48-.07-.16-.15-.31-.25-.45-.1-.15-.23-.28-.36-.39-.14-.12-.31-.21-.49-.28-.27-.1-.52-.13-.75-.08-.22.05-.41.15-.57.3-.16.14-.28.33-.38.54-.09.21-.15.43-.18.66-.01.13-.02.26-.02.41,0,.14.01.29.04.44.03.15.07.29.14.43.06.14.14.27.25.4.1.12.23.23.39.34.15.1.33.19.55.28.19.07.36.12.5.13.02,0,.05,0,.07,0,.18.01.32,0,.45-.05.13-.05.25-.12.34-.22.09-.09.17-.2.24-.32.06-.12.11-.24.15-.37.04-.13.06-.25.07-.37.02-.13.02-.28.01-.43,0-.15-.03-.31-.06-.47Zm-1.54-.67s.04-.01.07,0c.02,0,.03,0,.05.01.05.02.09.05.12.1.04.05.06.11.09.17.02.07.04.14.05.22,0,.08.01.16.02.24,0,.08,0,.15,0,.22,0,.07,0,.12-.01.17h0c0,.07-.02.14-.04.22-.02.08-.05.15-.09.21-.04.06-.08.1-.13.13-.05.03-.1.03-.17,0-.07-.03-.13-.07-.17-.14-.04-.07-.07-.15-.09-.24-.02-.09-.03-.18-.03-.27,0-.09,0-.17.01-.23,0-.04.01-.1.03-.16.01-.06.03-.13.05-.19.02-.07.04-.13.07-.19.03-.06.06-.11.09-.15.03-.04.07-.07.11-.08Z"/>
              <path class="cls-39" d="m80.44,194.33s-.08-.03-.13-.05c-.04-.02-.09-.04-.15-.07-.06-.03-.13-.06-.2-.11-.11-.06-.24-.14-.38-.23-.14-.09-.3-.2-.46-.33-.02-.01-.04-.01-.06,0-.02.01-.03.04-.02.06.02.05.03.11.04.18,0,.07.01.16.02.25,0,.09,0,.19,0,.29,0,.1,0,.2,0,.3-.01.23-.03.47-.06.73,0,.08-.02.15-.03.23-.01.07-.03.13-.05.18-.02.04-.04.07-.07.08-.03.01-.07,0-.1-.03-.04-.02-.07-.06-.09-.11-.03-.06-.04-.12-.05-.19-.01-.07-.02-.15-.01-.23,0-.08,0-.16.01-.23.04-.31.09-.58.15-.8.07-.22.13-.42.2-.58.01-.03,0-.06-.03-.07-.04-.02-.09-.04-.15-.07-.05-.02-.1-.05-.17-.09-.07-.04-.14-.08-.22-.13-.12-.07-.25-.15-.41-.25-.14-.09-.3-.2-.47-.33-.02-.01-.05-.01-.06,0-.02.02-.02.04-.01.06.03.07.05.17.06.29.01.13.02.27.01.41,0,.15-.01.3-.02.45-.01.15-.03.28-.04.4-.01.1-.02.18-.03.23,0,.05-.01.1-.02.12,0,.01,0,.02,0,.03,0,0,0,.02-.01.03,0,0,0,.03,0,.06-.01.12-.02.25-.02.39,0,.14.02.28.05.41.03.14.07.28.12.42.05.14.13.28.22.4.09.13.2.26.32.38.13.12.28.23.45.33.2.12.38.19.53.22.02,0,.04,0,.05,0,.13.02.26,0,.36-.03.12-.04.22-.11.3-.21.08-.09.14-.19.19-.31.05-.11.09-.23.12-.35.03-.12.04-.23.06-.32,0-.05,0-.09.01-.14,0-.05,0-.1.01-.15.02-.14.04-.29.06-.44.02-.14.05-.28.08-.41.03-.13.06-.25.08-.36.03-.11.06-.2.09-.28,0-.01,0-.03,0-.04,0-.01-.02-.02-.03-.03Z"/>
              <path class="cls-39" d="m83.19,195.68c.01-.09.02-.17.04-.25.02-.08.04-.17.07-.25,0-.02,0-.04-.01-.05-.01-.01-.03-.02-.05-.01-.09.02-.2.04-.32.04-.11,0-.23,0-.35-.02.03-.15.06-.28.09-.4.03-.13.07-.24.1-.33,0-.02,0-.03,0-.05,0-.01-.02-.02-.04-.02-.04,0-.08,0-.13-.02-.04,0-.09-.02-.16-.03-.06-.01-.13-.03-.21-.06-.12-.04-.25-.09-.39-.15-.15-.07-.3-.15-.47-.25-.02-.01-.04-.01-.06,0-.02.01-.03.03-.03.05,0,.13.01.27.01.42,0,.13,0,.26,0,.41-.11-.06-.23-.13-.34-.2-.13-.09-.25-.18-.34-.27-.02-.01-.04-.02-.06-.01-.02,0-.03.03-.03.05,0,.11,0,.21,0,.31,0,.1-.01.2-.02.3,0,.02,0,.05-.01.09,0,.03-.01.07-.02.1,0,.03-.02.07-.03.1-.01.03-.02.05-.03.06,0,.01-.01.03,0,.05,0,.02.02.03.04.03.12.03.25.07.4.12.13.04.26.09.39.13l-.04.31c-.05.39-.11.79-.19,1.19-.08.4-.18.77-.29,1.12,0,.01,0,.03,0,.04,0,.01.02.02.03.03l.07.02c.19.06.36.11.52.16.14.04.27.08.39.12l.3.09c.06.02.11.03.15.04.05.02.09.03.13.04,0,0,0,0,0,0,.02,0,.03,0,.04-.01.01-.01.02-.03.02-.05-.03-.15-.05-.33-.06-.53,0-.2-.01-.4,0-.62,0-.22.02-.44.03-.67.02-.22.04-.45.06-.67l.02-.19c.11.04.22.08.33.12.13.05.24.1.33.16.02.01.04.01.06,0,.02-.01.03-.03.03-.05,0-.09-.01-.17,0-.26,0-.08,0-.17.02-.25Z"/>
            </g>
          </g>
          <g>
            <g>
              <g>
                <path class="cls-44" d="m76.33,187.12c-.01.1-.04.19-.09.28-.05.09-.12.16-.2.21-.08.05-.18.09-.28.1-.11.01-.23,0-.36-.06-.12-.04-.21-.1-.29-.16-.08-.07-.14-.14-.19-.22-.05-.08-.08-.16-.09-.25-.02-.09-.02-.17-.01-.25,0-.08.03-.16.06-.23.03-.07.07-.13.13-.17,0,.05.02.08.04.11.02.03.04.05.06.07.02.02.05.04.08.05.07.02.12.03.15,0,.03-.02.05-.06.06-.1,0-.02,0-.04,0-.07,0-.02-.02-.05-.03-.07-.02-.02-.04-.05-.07-.07-.03-.02-.06-.04-.11-.06-.02,0-.06-.02-.1-.03-.04,0-.1-.01-.15,0-.06,0-.12.03-.18.06-.06.03-.12.08-.18.15-.06.07-.11.16-.15.28-.04.12-.08.27-.1.45-.01.12-.01.23,0,.33.02.1.04.19.08.27.04.08.08.15.13.2.05.06.1.11.16.15.06.04.11.08.16.11.05.03.1.05.14.06.06.02.13.04.21.05.09.01.17.01.26,0,.09-.02.17-.05.25-.11.08-.06.14-.15.18-.28.06.13.11.27.13.42.02.15.03.3.01.45-.02.2-.08.38-.18.53-.1.15-.23.27-.39.36-.16.09-.35.14-.56.15-.22.01-.45-.02-.7-.1-.19-.06-.36-.13-.51-.23-.15-.09-.29-.2-.41-.33-.12-.12-.23-.26-.31-.41-.09-.15-.15-.3-.21-.47-.05-.16-.09-.33-.1-.51-.02-.17-.01-.35,0-.52.02-.19.07-.38.14-.57.07-.19.16-.37.26-.54.11-.17.23-.32.37-.46.14-.14.3-.24.47-.33.17-.08.35-.13.55-.15.19-.02.39.01.6.08.19.06.35.14.49.24.14.09.26.2.35.31.1.11.17.22.23.34.06.12.11.23.14.34.03.11.05.21.06.31,0,.1,0,.19,0,.26Z"/>
                <path class="cls-39" d="m74.63,189.88c-.13-.02-.28-.05-.43-.09-.19-.06-.37-.14-.52-.23-.16-.1-.3-.21-.42-.34-.13-.13-.23-.27-.32-.42-.09-.15-.16-.31-.21-.48-.05-.17-.09-.34-.1-.52-.02-.18-.01-.36,0-.53.02-.2.07-.39.14-.59.07-.19.16-.38.27-.55.11-.17.24-.33.38-.47.15-.14.31-.25.48-.34.18-.08.37-.13.56-.15.2-.02.41.01.62.08.19.06.36.14.5.24.14.09.26.2.36.31.1.11.18.23.24.35.06.12.11.24.14.35.03.11.05.22.06.32,0,.1,0,.19,0,.27h0c-.01.11-.05.21-.1.3-.05.09-.13.17-.21.23-.09.06-.19.09-.31.11-.12.01-.24,0-.38-.06-.12-.05-.22-.1-.31-.17-.08-.07-.15-.15-.2-.23-.05-.08-.08-.17-.1-.26-.02-.09-.02-.18-.01-.27.01-.09.03-.17.07-.24.04-.08.08-.14.14-.19.01-.01.03-.02.05,0,.02,0,.03.02.03.04,0,.04.02.07.03.09.02.02.03.04.05.06.02.02.04.03.07.04.05.02.08.02.1,0,.02-.01.03-.03.03-.06,0-.01,0-.03,0-.05,0-.02-.01-.04-.03-.06-.01-.02-.03-.04-.06-.06-.02-.02-.06-.04-.09-.05-.02,0-.05-.02-.1-.02-.04,0-.08,0-.13,0-.05,0-.1.02-.16.05-.05.03-.11.07-.16.14-.05.07-.1.15-.14.27-.04.11-.07.26-.09.43-.01.12-.01.23,0,.32.02.09.04.18.07.25.03.07.07.14.12.19.05.06.1.11.15.15.05.04.11.07.16.1.05.03.1.05.14.06.05.02.12.03.2.05.08.01.16.01.25,0,.08-.01.16-.05.23-.1.07-.05.12-.14.16-.25,0-.02.03-.04.05-.04.02,0,.04.01.05.03.07.13.11.28.14.43.02.15.03.31.01.46-.02.21-.09.39-.19.55-.1.16-.24.29-.41.38-.17.09-.36.14-.59.15-.09,0-.19,0-.29,0Zm.1-4.58c-.09-.01-.18-.01-.26,0-.18.01-.36.06-.53.14-.16.08-.32.18-.45.32-.14.13-.26.28-.37.45-.1.16-.19.34-.26.53-.07.19-.11.37-.13.56-.02.17-.02.34,0,.51.01.17.05.33.1.49.05.16.12.31.2.46.08.14.18.27.3.4.12.12.25.23.4.32.15.09.32.17.5.22.26.08.48.11.69.1.21-.01.39-.06.54-.14.15-.08.28-.2.37-.34.09-.15.15-.32.18-.51.02-.14.01-.29,0-.43-.02-.1-.04-.2-.08-.29-.04.08-.09.14-.15.18-.08.06-.17.11-.27.12-.09.02-.19.02-.28,0-.09-.01-.17-.03-.22-.05-.04-.02-.1-.04-.15-.07-.06-.03-.11-.07-.17-.11-.06-.04-.11-.1-.17-.16-.05-.06-.1-.14-.14-.22-.04-.08-.06-.17-.08-.28-.02-.1-.02-.22,0-.35.02-.18.05-.34.1-.46.05-.12.1-.22.16-.3.06-.08.13-.13.19-.17.07-.03.13-.06.2-.06.06,0,.12,0,.17,0,.05,0,.08.02.11.03.05.02.09.04.12.07.03.03.06.05.08.08.02.03.03.06.04.09,0,.03.01.06,0,.08,0,.06-.03.11-.08.14-.05.03-.11.03-.2,0-.04-.02-.07-.04-.1-.06-.03-.02-.05-.05-.07-.08,0-.01-.01-.03-.02-.04-.02.03-.04.06-.05.09-.03.06-.05.14-.06.21,0,.08,0,.16.01.23.02.08.05.16.09.23.04.07.1.14.17.2.07.06.17.11.28.15.12.05.23.06.33.05.1-.01.19-.04.26-.09.07-.05.13-.11.18-.19.05-.08.08-.17.09-.26,0-.07,0-.16,0-.25,0-.09-.02-.2-.05-.3-.03-.11-.07-.22-.13-.33-.06-.11-.13-.22-.23-.33-.09-.11-.21-.21-.34-.3-.14-.09-.3-.17-.48-.23-.11-.04-.22-.06-.32-.07Z"/>
              </g>
              <g>
                <path class="cls-44" d="m79.42,192.06c-.11-.07-.24-.15-.38-.23-.14-.08-.28-.15-.42-.22-.13-.07-.26-.13-.39-.18-.12-.05-.23-.1-.32-.13.06-.12.11-.25.16-.39.04-.14.08-.29.11-.44.03-.16.06-.32.09-.5.02-.18.05-.36.07-.56,0-.03,0-.07,0-.12,0-.05,0-.11,0-.17,0-.06,0-.12-.02-.19,0-.07-.02-.13-.04-.19-.02-.06-.05-.11-.08-.16-.03-.05-.07-.08-.12-.11-.03-.02-.06-.02-.1,0-.03.02-.07.04-.11.07-.04.03-.07.08-.11.13-.04.05-.07.11-.11.17-.02.2-.03.4-.04.61-.01.2-.02.4-.02.59,0,.19,0,.37.01.54,0,.17.03.33.05.47-.04-.02-.08-.04-.13-.07-.04-.02-.09-.05-.15-.08-.06-.03-.12-.06-.2-.1-.14-.07-.3-.14-.48-.21-.18-.07-.38-.14-.59-.21.04-.04.07-.11.11-.19.03-.09.07-.19.1-.3.03-.12.06-.24.09-.37.03-.13.05-.27.08-.4.02-.14.04-.27.06-.4.02-.13.03-.25.05-.35.01-.1.03-.19.03-.27,0-.07.01-.12.02-.14.03-.33.06-.64.08-.93,0-.12.01-.24.02-.37,0-.12,0-.24,0-.35,0-.11,0-.21-.01-.29,0-.09-.02-.15-.04-.2.17.1.33.2.47.27.14.08.28.15.39.2.08.04.14.07.21.1.06.03.11.05.16.07.05.02.1.04.13.05-.02.06-.05.14-.07.23-.02.09-.05.19-.07.31-.02.11-.05.24-.07.37-.02.13-.05.27-.07.42.14-.12.28-.17.43-.18.15,0,.3.04.45.11.15.08.28.18.4.3.12.13.22.28.29.45.08.18.13.37.16.6.03.22.03.47,0,.74-.02.18-.04.38-.06.57-.02.2-.04.39-.05.59-.01.19-.02.38-.02.56,0,.18.01.35.04.5Z"/>
                <path class="cls-39" d="m79.42,192.11s-.02,0-.02,0c-.11-.07-.24-.15-.37-.22-.14-.08-.28-.15-.41-.22-.13-.07-.26-.13-.38-.18-.12-.05-.23-.1-.32-.13-.01,0-.03-.02-.03-.03,0-.01,0-.03,0-.04.06-.12.11-.24.15-.38.04-.14.08-.28.11-.44.03-.16.06-.32.09-.5.02-.18.05-.36.07-.56,0-.03,0-.07,0-.12,0-.05,0-.1,0-.16,0-.06,0-.12-.02-.19,0-.06-.02-.12-.04-.18-.02-.05-.04-.1-.07-.15-.03-.04-.06-.07-.1-.09-.02,0-.03,0-.05,0-.03.01-.06.03-.09.06-.03.03-.07.07-.1.12-.03.05-.07.1-.1.15-.02.2-.03.4-.04.59-.01.2-.02.39-.02.58,0,.19,0,.37.01.54,0,.17.03.32.05.46,0,.02,0,.04-.02.05-.02.01-.04.01-.06,0-.04-.02-.08-.04-.13-.07-.04-.02-.09-.05-.15-.08-.06-.03-.12-.06-.2-.1-.14-.07-.3-.14-.47-.21-.18-.08-.38-.14-.59-.21-.02,0-.03-.02-.04-.04,0-.02,0-.04.01-.05.03-.04.06-.1.1-.18.03-.08.07-.18.1-.3.03-.11.06-.24.09-.37.03-.13.05-.27.08-.4.02-.14.04-.27.06-.4.02-.13.03-.25.05-.35.01-.1.03-.19.03-.26l.02-.14c.03-.33.06-.64.08-.92,0-.12.01-.24.02-.37,0-.12,0-.24,0-.35,0-.11,0-.2-.01-.29,0-.08-.02-.14-.03-.19,0-.02,0-.04.02-.06.02-.01.04-.02.06,0,.18.11.33.2.47.27.15.08.28.15.39.2.08.04.14.07.2.1.06.03.11.05.15.07.05.02.09.04.13.05.01,0,.03.02.03.03,0,.01,0,.03,0,.04-.02.06-.05.13-.07.22-.02.09-.05.2-.07.3-.02.11-.05.24-.07.37-.02.1-.03.19-.05.3.12-.07.24-.11.36-.11.16,0,.31.04.47.12.15.08.29.18.42.31.12.13.22.29.3.47.08.18.13.38.16.61.03.23.03.48,0,.75-.02.18-.04.38-.06.57-.02.19-.04.39-.05.59-.01.19-.02.38-.02.56,0,.18.01.34.04.49,0,.02,0,.04-.02.05-.01,0-.02,0-.03,0Zm-1.42-.85c.08.03.17.07.27.11.12.05.25.12.39.19.14.07.28.15.42.23.1.06.19.11.28.17-.01-.12-.02-.25-.02-.39,0-.18,0-.37.02-.57.01-.2.03-.4.05-.59.02-.2.04-.39.06-.57.03-.26.03-.51,0-.72-.03-.22-.08-.41-.15-.58-.07-.17-.17-.32-.28-.44-.11-.12-.24-.22-.39-.29-.14-.07-.28-.11-.42-.11-.13,0-.27.06-.4.16-.02.01-.04.02-.06,0-.02-.01-.03-.03-.03-.05.02-.15.04-.29.07-.42.02-.13.05-.26.07-.37.02-.11.05-.21.07-.31.02-.07.04-.13.06-.18-.03,0-.05-.02-.09-.03-.04-.02-.1-.04-.16-.07-.06-.03-.13-.06-.21-.1-.11-.06-.25-.12-.39-.2-.11-.06-.23-.13-.37-.21,0,.03,0,.06,0,.09,0,.09.01.19.01.3,0,.11,0,.23,0,.35,0,.12-.01.25-.02.37-.02.29-.04.6-.08.93l-.02.14c0,.07-.02.16-.03.27-.01.1-.03.22-.05.35-.02.13-.04.26-.06.4-.02.14-.05.27-.08.41-.03.13-.06.26-.09.38-.03.12-.07.22-.1.31-.02.06-.05.1-.07.14.18.06.36.12.52.19.18.07.34.14.48.21.07.04.14.07.2.1.06.03.11.06.15.08.01,0,.02.01.03.02-.02-.11-.03-.24-.03-.37,0-.17-.01-.36-.01-.55,0-.19,0-.39.02-.59.01-.2.03-.4.04-.61,0,0,0-.02,0-.02.04-.06.07-.12.11-.17.04-.05.08-.1.12-.14.04-.04.08-.07.12-.08.05-.02.1-.02.14,0,.06.03.1.07.14.13.04.05.07.11.09.18.02.06.04.13.05.2,0,.07.02.13.02.2,0,.06,0,.12,0,.17,0,.05,0,.09,0,.12-.02.2-.05.39-.07.56-.02.18-.05.35-.09.5-.03.16-.07.31-.12.45-.04.12-.08.23-.13.34Z"/>
              </g>
              <g>
                <path class="cls-44" d="m81.16,192.74s-.08-.04-.13-.06c-.04-.02-.09-.04-.15-.07-.06-.03-.12-.06-.2-.09-.14-.06-.3-.13-.48-.21-.18-.08-.38-.15-.59-.22.05-.05.09-.13.13-.23.04-.1.08-.21.11-.33.03-.12.06-.24.09-.37.02-.13.05-.24.06-.35.02-.11.03-.2.04-.28,0-.08.02-.12.02-.14.03-.26.04-.5.05-.73,0-.1,0-.2,0-.3,0-.1,0-.2,0-.29,0-.09,0-.18-.02-.25,0-.08-.02-.14-.04-.19.17.11.32.21.47.29.14.08.28.15.39.2.08.04.14.07.21.09.06.02.11.04.16.06.05.02.1.03.14.04-.06.16-.11.36-.17.6-.05.24-.1.5-.13.78-.02.16-.03.33-.04.5-.01.17-.02.34-.02.52,0,.17,0,.35.02.52.01.17.03.34.06.51Zm-.97-4.89c.01-.09.04-.17.08-.23.05-.06.1-.11.18-.13.07-.03.15-.04.24-.03.09,0,.18.03.28.08.1.05.19.11.27.18.08.07.15.15.21.24.06.09.1.18.13.28.03.1.04.19.03.28-.01.09-.04.17-.09.23-.05.06-.11.11-.18.14-.07.03-.15.04-.24.04-.09,0-.18-.03-.28-.08-.1-.05-.19-.11-.27-.18-.08-.08-.15-.16-.21-.25-.06-.09-.1-.19-.13-.29-.03-.1-.04-.19-.03-.28Z"/>
                <path class="cls-39" d="m81.16,192.79s-.01,0-.02,0c-.04-.02-.08-.04-.13-.07l-.15-.07c-.06-.03-.12-.06-.2-.09-.13-.06-.29-.13-.48-.21-.18-.07-.38-.15-.59-.22-.02,0-.03-.02-.03-.04,0-.02,0-.04.01-.05.04-.05.09-.12.12-.22.04-.1.08-.21.11-.32.03-.12.06-.24.09-.37.02-.13.05-.24.06-.35.02-.11.03-.2.04-.27v-.06s.02-.07.02-.08c.02-.25.04-.5.05-.73,0-.1,0-.2,0-.3,0-.1,0-.2,0-.29,0-.09,0-.17-.02-.25,0-.07-.02-.13-.03-.18,0-.02,0-.05.02-.06.02-.01.04-.01.06,0,.17.11.32.21.46.29.14.08.27.15.39.2.08.03.14.06.2.09.06.02.11.04.15.06.05.02.09.03.13.04.01,0,.03.01.03.03,0,.01,0,.03,0,.04-.06.16-.11.36-.17.59-.05.24-.1.5-.13.78-.02.16-.03.33-.04.5-.01.17-.02.34-.02.51,0,.17,0,.35.02.52.01.17.03.34.06.51,0,.02,0,.04-.02.05-.01,0-.02.01-.04.01Zm-1.45-.74c.19.07.36.13.52.2.19.08.35.15.48.21.07.03.14.07.2.09l.15.07s.02.01.03.02c-.02-.14-.03-.27-.04-.41-.01-.17-.02-.35-.02-.53,0-.17,0-.35.02-.52.01-.17.03-.34.04-.5.03-.29.08-.55.13-.79.05-.21.1-.4.15-.55-.03,0-.05-.02-.08-.03-.04-.01-.1-.03-.16-.06-.06-.02-.13-.06-.21-.09-.12-.06-.25-.12-.4-.2-.11-.06-.23-.14-.36-.22,0,.02,0,.04,0,.07,0,.08.01.16.02.25,0,.09,0,.19,0,.29,0,.1,0,.2,0,.3-.01.23-.03.48-.05.73,0,.01,0,.04-.01.09v.06c-.02.08-.03.17-.05.28-.02.11-.04.23-.06.35-.02.13-.05.25-.09.37-.03.12-.07.23-.11.33-.03.07-.06.13-.1.19Zm1.35-3.08c-.08,0-.17-.04-.26-.08-.1-.05-.2-.11-.28-.19-.09-.08-.16-.17-.22-.26-.06-.1-.11-.2-.13-.3-.03-.1-.04-.21-.03-.3h0c.01-.1.04-.18.1-.25.05-.07.12-.12.2-.15.08-.03.17-.04.27-.04.1,0,.2.04.3.08.1.05.2.11.28.19.09.08.16.16.22.25.06.09.11.19.14.29.03.1.04.2.03.3-.01.1-.04.19-.1.26-.05.07-.12.13-.2.16-.08.03-.17.05-.27.04-.01,0-.03,0-.04,0Zm-.35-1.47s-.01,0-.02,0c-.08,0-.16,0-.22.03-.06.03-.11.06-.15.12-.04.05-.07.12-.07.2h0c0,.08,0,.17.02.26.03.09.07.18.12.27.05.09.12.17.2.24.08.07.17.13.26.17.09.04.18.07.26.07.08,0,.15,0,.22-.03.06-.03.11-.07.16-.13.04-.06.07-.13.08-.21,0-.08,0-.17-.02-.26-.03-.09-.07-.18-.12-.26-.05-.08-.12-.16-.2-.23-.08-.07-.16-.13-.26-.17-.08-.04-.17-.06-.24-.07Z"/>
              </g>
              <g>
                <path class="cls-44" d="m82.91,193.39s-.08-.03-.13-.05c-.04-.02-.09-.03-.15-.06-.06-.02-.13-.04-.2-.07-.14-.05-.3-.1-.48-.16-.18-.06-.38-.12-.59-.18.04-.04.07-.11.11-.19.03-.09.07-.19.1-.3.03-.12.06-.24.09-.37.03-.13.05-.27.08-.41.02-.14.04-.27.06-.4.02-.13.03-.25.05-.35.01-.1.03-.19.03-.27,0-.07.01-.12.02-.14.03-.33.06-.64.08-.92,0-.12.01-.24.02-.37,0-.12,0-.24,0-.35,0-.11,0-.21-.01-.29,0-.09-.02-.15-.04-.2.17.1.33.18.47.25.15.07.28.12.4.16.08.03.15.05.21.07.06.02.12.03.16.04.05.01.1.02.14.03-.03.08-.06.19-.09.32-.03.13-.06.28-.09.44-.03.17-.06.34-.09.54-.03.19-.06.39-.08.6-.03.24-.05.47-.07.72-.02.24-.03.48-.04.71,0,.23,0,.45,0,.65,0,.21.03.39.06.55Z"/>
                <path class="cls-39" d="m82.9,193.44s0,0-.01,0c-.04-.01-.08-.03-.13-.05l-.15-.05c-.06-.02-.13-.04-.2-.07-.14-.05-.3-.1-.48-.16-.17-.05-.36-.11-.59-.18-.02,0-.03-.02-.04-.04,0-.02,0-.04.01-.05.03-.04.06-.1.1-.18.03-.08.07-.19.1-.3.03-.12.06-.24.09-.37.03-.13.05-.27.08-.4.02-.14.04-.27.06-.4.02-.13.03-.25.05-.35.01-.1.03-.19.03-.26l.02-.14c.03-.33.06-.64.08-.92,0-.12.01-.24.02-.36,0-.12,0-.24,0-.35,0-.11,0-.21-.01-.29,0-.08-.02-.14-.03-.19,0-.02,0-.04.02-.06.02-.01.04-.02.06,0,.17.1.32.18.47.25.14.06.27.12.39.16.08.03.15.05.21.07.06.02.11.03.16.04.05.01.1.02.13.03.02,0,.03.01.04.03,0,.01,0,.03,0,.05-.03.08-.06.19-.09.31-.03.13-.06.28-.09.44-.03.16-.06.33-.09.53-.03.19-.06.39-.08.6-.03.23-.05.47-.07.71-.02.24-.03.48-.04.71,0,.23,0,.45,0,.65,0,.2.03.38.05.54,0,.02,0,.04-.02.05-.01,0-.03.01-.04.01Zm-1.46-.59c.2.06.37.11.52.16.18.06.34.11.48.16.08.03.14.05.2.07l.15.05s.03.01.04.02c-.02-.14-.03-.3-.04-.47,0-.21,0-.43,0-.66,0-.23.02-.47.04-.71.02-.24.04-.48.07-.72.02-.2.05-.41.08-.6.03-.2.06-.38.09-.54.03-.17.06-.32.1-.45.03-.1.05-.19.07-.27-.02,0-.05-.01-.08-.02-.04,0-.1-.02-.16-.04-.06-.02-.13-.04-.21-.07-.12-.04-.26-.1-.4-.16-.12-.05-.24-.12-.37-.19,0,.03,0,.06,0,.09,0,.08.01.18.01.3,0,.11,0,.23,0,.35,0,.12-.01.25-.02.37-.02.29-.04.6-.08.93l-.02.14c0,.07-.02.16-.03.27-.01.1-.03.22-.05.35-.02.13-.04.26-.06.4-.02.14-.05.27-.08.41-.03.13-.06.26-.09.38-.03.12-.07.22-.1.31-.02.06-.05.1-.07.14Z"/>
              </g>
              <g>
                <path class="cls-44" d="m84.66,193.76s-.08-.01-.13-.03c-.04,0-.1-.02-.16-.03-.06-.01-.13-.02-.2-.04-.14-.02-.31-.05-.49-.08-.19-.03-.39-.06-.6-.09.04-.05.07-.11.11-.21.03-.09.07-.19.1-.31.03-.12.06-.24.09-.38.03-.14.05-.27.08-.41.02-.14.04-.27.06-.4.02-.13.03-.25.05-.35.01-.1.03-.19.03-.27,0-.07.01-.12.02-.14.03-.33.06-.64.08-.92,0-.12.01-.24.02-.36,0-.12,0-.24,0-.34,0-.11,0-.2-.01-.29,0-.08-.02-.15-.04-.19.17.08.33.14.48.18.15.04.28.08.4.1.08.01.15.03.21.03.06,0,.12.01.16.01.05,0,.1,0,.14,0-.03.09-.06.2-.09.33-.03.13-.06.28-.1.45-.03.17-.06.35-.09.54-.03.19-.06.39-.08.6-.03.24-.05.47-.07.71-.02.24-.03.47-.04.7,0,.23,0,.44,0,.64,0,.2.03.38.06.53Z"/>
                <path class="cls-39" d="m84.65,193.82s0,0,0,0c-.04,0-.08-.01-.13-.03l-.15-.03c-.06-.01-.13-.02-.2-.04-.09-.02-.19-.03-.3-.05l-.19-.03c-.18-.03-.39-.06-.6-.09-.02,0-.03-.02-.04-.03,0-.02,0-.04,0-.05.03-.04.07-.11.1-.19.03-.09.07-.19.1-.31.03-.12.06-.24.09-.38.03-.13.05-.27.08-.41.02-.14.04-.27.06-.4.02-.13.03-.25.05-.35.01-.1.03-.19.03-.26l.02-.14c.03-.33.06-.64.08-.92,0-.12.01-.24.02-.36,0-.12,0-.24,0-.34,0-.11,0-.2-.01-.28,0-.08-.02-.14-.03-.18,0-.02,0-.04.01-.06.02-.01.04-.02.06,0,.17.07.33.13.47.18.14.04.27.07.4.1.08.01.15.03.22.03.06,0,.11.01.15.01.05,0,.1,0,.14,0,.02,0,.03,0,.04.02.01.01.01.03,0,.05-.03.08-.06.19-.09.32-.03.13-.06.28-.1.45-.03.16-.06.34-.09.54-.03.19-.05.39-.08.6-.03.23-.05.47-.07.71-.02.24-.03.47-.04.7,0,.23,0,.44,0,.64,0,.2.03.37.06.52,0,.02,0,.03-.01.05-.01.01-.03.02-.04.02Zm-1.49-.36c.19.03.36.05.52.08l.19.03c.11.02.21.03.3.05.08.01.15.03.21.04l.16.03s.04,0,.06.01c-.02-.14-.04-.29-.05-.46,0-.2-.01-.41,0-.64,0-.23.02-.46.04-.7.02-.24.04-.48.07-.72.02-.21.05-.41.08-.6.03-.2.06-.38.09-.54.03-.17.06-.32.1-.45.02-.1.05-.19.07-.26-.02,0-.05,0-.07,0-.04,0-.1,0-.16-.01-.07,0-.14-.02-.22-.03-.13-.02-.27-.06-.41-.1-.12-.04-.25-.08-.39-.14,0,.03,0,.06.01.1,0,.08.01.18.01.29,0,.11,0,.22,0,.35,0,.12-.01.24-.02.36-.02.28-.04.59-.08.92l-.02.14c0,.07-.02.16-.03.27-.01.1-.03.22-.05.35-.02.13-.04.26-.06.4-.02.14-.05.27-.08.41-.03.14-.06.26-.09.38-.03.12-.07.23-.1.32-.02.06-.04.11-.07.15Z"/>
              </g>
            </g>
            <g>
              <g>
                <path class="cls-44" d="m77.17,193.98c-.01.11-.04.23-.07.36-.03.13-.08.25-.14.36-.06.12-.14.22-.23.31-.09.09-.2.16-.32.2-.12.04-.27.06-.43.05-.16,0-.35-.06-.56-.14-.21-.08-.39-.17-.54-.27-.15-.1-.28-.21-.38-.33-.1-.12-.19-.25-.24-.39-.06-.14-.1-.28-.13-.42-.03-.14-.04-.29-.04-.43,0-.14,0-.28.02-.4.03-.22.08-.44.17-.64.09-.2.21-.38.37-.52.15-.14.34-.24.55-.29.21-.05.45-.02.72.08.18.07.34.16.47.28.14.11.25.24.35.38.1.14.18.29.24.44.06.16.11.31.15.47.04.16.06.31.06.46,0,.15,0,.29-.01.43Zm-1.11-.44s.01-.1.01-.17c0-.07,0-.14,0-.22,0-.08,0-.16-.02-.24,0-.08-.03-.16-.05-.23-.02-.07-.05-.13-.09-.19-.04-.05-.09-.09-.15-.12-.06-.02-.11-.02-.16,0-.05.02-.09.05-.13.1-.04.05-.07.1-.1.17-.03.06-.05.13-.07.2-.02.07-.04.13-.05.2-.01.06-.02.12-.03.16,0,.06-.01.15-.01.24,0,.1.01.19.03.28.02.09.05.18.1.26.05.08.11.13.2.17.08.03.15.03.21,0,.06-.03.11-.08.15-.15.04-.07.07-.14.1-.22.02-.08.04-.16.05-.23Z"/>
                <path class="cls-39" d="m75.9,195.31c-.15-.02-.31-.06-.5-.13-.22-.08-.4-.17-.55-.28-.16-.11-.29-.22-.39-.34-.11-.13-.19-.26-.25-.4-.06-.14-.11-.29-.14-.43-.03-.15-.04-.29-.04-.44,0-.14,0-.28.02-.41.03-.23.09-.45.18-.66.09-.21.22-.39.38-.54.16-.15.36-.25.57-.3.23-.05.48-.02.75.08.18.07.35.17.49.28.14.11.26.25.36.39.1.14.19.29.25.45.06.16.11.32.15.48.04.16.06.32.06.47,0,.15,0,.3-.01.43h0c-.01.11-.04.24-.07.37-.04.13-.08.25-.15.37-.06.12-.14.23-.24.32-.1.1-.21.17-.34.22-.13.05-.28.06-.45.05-.02,0-.05,0-.07,0Zm-.38-3.83c-.12-.01-.23,0-.33.01-.2.04-.37.14-.52.27-.15.13-.27.3-.35.5-.09.2-.15.41-.17.62-.01.12-.02.26-.02.4,0,.14.01.28.04.42.03.14.07.28.13.41.06.13.13.25.24.37.1.11.22.22.37.32.14.1.32.18.53.26.21.08.39.12.54.13.16,0,.3,0,.41-.05.12-.04.22-.1.3-.19.09-.09.16-.19.22-.3.06-.11.1-.23.14-.35.03-.12.06-.24.07-.35h0c.01-.13.02-.27.01-.42,0-.15-.03-.3-.06-.45-.03-.15-.08-.31-.15-.46-.06-.15-.14-.3-.24-.43-.1-.14-.21-.26-.34-.37-.13-.11-.29-.2-.46-.27-.12-.05-.24-.08-.36-.09Zm1.7,2.5h0s0,0,0,0Zm-1.6.22s-.06-.01-.1-.02c-.1-.04-.17-.1-.22-.19-.05-.08-.08-.18-.1-.27-.02-.1-.03-.2-.03-.3,0-.1,0-.18.01-.25,0-.05.01-.1.03-.17.01-.07.03-.13.05-.2.02-.07.05-.14.08-.21.03-.07.07-.13.11-.18.04-.05.09-.09.15-.11.06-.03.13-.02.2,0,.07.03.13.07.17.14.04.06.08.13.1.2.02.07.04.16.05.24,0,.08.02.17.02.25,0,.08,0,.16,0,.23,0,.07,0,.13-.02.17h0c0,.07-.02.15-.05.24-.02.09-.06.17-.1.24-.05.07-.1.13-.17.17-.05.03-.1.04-.16.03Zm.07-1.81s-.05,0-.07,0c-.04.02-.07.04-.11.08-.03.04-.07.09-.09.15-.03.06-.05.13-.07.19-.02.07-.04.13-.05.19-.01.06-.02.12-.03.16,0,.06-.01.14-.01.23,0,.09,0,.18.03.27.02.09.05.17.09.24.04.07.09.11.17.14.07.03.12.03.17,0,.05-.03.1-.07.13-.13.04-.06.07-.13.09-.21.02-.08.04-.15.04-.22h0s.01-.1.01-.17c0-.07,0-.14,0-.22,0-.08,0-.16-.02-.24,0-.08-.02-.15-.05-.22-.02-.07-.05-.12-.09-.17-.03-.05-.07-.08-.12-.1-.02,0-.03-.01-.05-.01Zm.41,1.14h0s0,0,0,0Z"/>
              </g>
              <g>
                <path class="cls-44" d="m80.46,194.07c-.03.08-.06.17-.09.28-.03.11-.06.23-.09.36-.03.13-.05.27-.08.41-.02.14-.04.29-.06.44,0,.05-.01.1-.01.15,0,.05,0,.1-.01.14-.01.1-.03.2-.06.32-.03.12-.06.23-.11.34-.05.11-.11.21-.19.29-.07.09-.17.15-.28.19-.11.04-.24.05-.39.02-.15-.02-.32-.09-.51-.21-.17-.1-.31-.21-.44-.32-.12-.12-.23-.24-.32-.37-.09-.13-.16-.26-.21-.39-.05-.14-.09-.27-.12-.41-.03-.14-.04-.27-.05-.4,0-.13,0-.26.02-.38,0-.03,0-.05,0-.05,0,0,0-.01,0-.01,0,0,0,0,0,0,0,0,0-.02,0-.04,0-.03,0-.07.02-.12,0-.05.02-.13.03-.23.01-.12.03-.25.04-.4.01-.15.02-.3.02-.45,0-.15,0-.29-.01-.42-.01-.13-.03-.23-.07-.31.17.12.32.23.47.33.15.1.28.18.41.25.08.05.16.09.22.13.07.04.12.07.17.09.05.03.1.05.15.07-.06.17-.13.36-.2.58-.07.22-.12.49-.16.81,0,.07-.01.15-.02.23,0,.08,0,.16.01.24.01.08.03.15.06.21.03.06.07.11.12.14.06.04.11.05.15.03.04-.02.07-.05.1-.11.03-.05.04-.12.06-.2.01-.08.02-.15.03-.23.03-.26.05-.5.06-.73,0-.1,0-.2,0-.3,0-.1,0-.2,0-.29,0-.09,0-.18-.02-.26,0-.08-.02-.14-.04-.19.17.13.32.24.46.33.14.09.27.17.38.23.08.04.14.08.2.11.06.03.11.05.15.07.05.02.1.04.13.05Z"/>
                <path class="cls-39" d="m79.15,197.07s-.04,0-.05,0c-.15-.03-.33-.1-.53-.22-.17-.1-.32-.21-.45-.33-.13-.12-.23-.25-.32-.38-.09-.13-.16-.27-.22-.4-.05-.14-.1-.28-.12-.42-.03-.14-.04-.28-.05-.41,0-.14,0-.27.02-.39,0-.03,0-.06,0-.06,0,0,0-.02.01-.03,0,0,0-.02,0-.03,0-.03,0-.07.02-.12,0-.05.02-.13.03-.23.01-.12.03-.25.04-.4.01-.15.02-.3.02-.45,0-.15,0-.29-.01-.41-.01-.12-.03-.22-.06-.29,0-.02,0-.05.01-.06.02-.02.05-.02.06,0,.17.13.33.23.47.33.15.1.29.18.41.25.08.05.15.09.22.13.07.04.12.07.17.09.05.03.1.05.15.07.03.01.04.04.03.07-.06.16-.13.36-.2.58-.07.22-.12.49-.15.8,0,.07-.01.15-.01.23,0,.08,0,.16.01.23.01.07.03.14.05.19.02.05.05.09.09.11.03.02.08.04.1.03.03-.01.05-.04.07-.08.02-.05.04-.11.05-.18.01-.08.02-.15.03-.23.03-.25.05-.5.06-.73,0-.1,0-.2,0-.3,0-.1,0-.2,0-.29,0-.09,0-.18-.02-.25,0-.07-.02-.14-.04-.18,0-.02,0-.05.02-.06.02-.01.04-.01.06,0,.16.13.32.24.46.33.14.09.27.17.38.23.07.04.14.08.2.11.06.03.11.05.15.07.05.02.09.04.13.05.01,0,.02.01.03.03,0,.01,0,.03,0,.04-.03.08-.06.17-.09.28-.03.11-.06.23-.08.36-.03.13-.05.27-.08.41-.02.15-.04.29-.06.44,0,.05-.01.1-.01.15,0,.05,0,.1-.01.14-.01.1-.03.21-.06.32-.03.12-.07.24-.12.35-.05.11-.12.22-.19.31-.08.1-.18.17-.3.21-.1.04-.23.05-.36.03Zm-1.61-2.59s0,0,0,0c0,0,0,.02,0,.04-.01.12-.02.24-.02.38,0,.13.02.26.04.39.03.13.07.27.12.4.05.13.12.26.2.38.08.12.19.24.31.36.12.11.26.22.43.32.19.11.35.18.5.2.14.02.26.02.36-.02.1-.04.19-.09.25-.17.07-.08.13-.18.18-.28.05-.1.08-.21.11-.32.03-.11.04-.22.05-.31,0-.04,0-.09.01-.14,0-.05,0-.1.01-.15.02-.14.04-.29.06-.44.02-.14.05-.28.08-.42.03-.13.06-.25.09-.36.02-.09.05-.17.07-.24-.03-.01-.06-.02-.09-.04-.04-.02-.09-.04-.16-.07-.06-.03-.13-.07-.21-.11-.11-.06-.24-.14-.39-.24-.11-.07-.23-.15-.35-.25,0,.02,0,.04,0,.06,0,.08.01.17.02.26,0,.09,0,.19,0,.29,0,.1,0,.2,0,.3-.01.23-.03.48-.06.73,0,.08-.02.16-.03.24-.01.08-.03.15-.06.21-.03.06-.07.11-.12.13-.06.03-.13.02-.2-.03-.06-.04-.11-.09-.14-.16-.03-.07-.05-.14-.06-.22-.01-.08-.02-.16-.01-.25,0-.08,0-.16.02-.24.04-.32.09-.59.16-.82.06-.2.12-.38.18-.54-.03-.02-.07-.03-.11-.05-.05-.02-.11-.06-.17-.09-.07-.04-.14-.08-.22-.13-.12-.07-.25-.15-.41-.25-.11-.07-.22-.15-.35-.24.01.05.02.11.02.17.01.13.02.27.01.43,0,.15-.01.3-.02.45-.01.15-.03.29-.04.4-.01.1-.02.18-.03.23,0,.05-.01.09-.02.12,0,.04,0,.05-.02.06Zm-.09-.06s0,0,0,0c0,0,0,0,0,0Z"/>
              </g>
              <g>
                <path class="cls-44" d="m83.28,194.85c-.03.09-.05.17-.07.25-.02.08-.03.17-.04.26,0,.08-.02.17-.02.26,0,.09,0,.17,0,.26-.1-.06-.21-.11-.34-.16-.13-.05-.26-.1-.4-.14,0,.08-.02.17-.03.25-.03.22-.05.45-.06.68-.02.23-.03.45-.03.67,0,.22,0,.43,0,.62,0,.2.03.38.06.53-.04,0-.08-.02-.13-.04-.04-.01-.09-.03-.15-.04-.06-.02-.13-.04-.2-.06-.14-.04-.3-.09-.49-.14-.18-.06-.38-.12-.6-.18.12-.35.21-.73.29-1.13.08-.4.14-.8.19-1.19l.04-.35c-.15-.05-.29-.1-.43-.15-.14-.05-.28-.09-.41-.12.01-.02.02-.04.03-.07.01-.03.02-.07.03-.1,0-.04.01-.07.02-.11,0-.03,0-.06.01-.09.01-.1.02-.2.02-.3,0-.1,0-.21,0-.31.1.09.21.18.35.27.14.09.28.17.42.25,0-.18.01-.34.01-.49,0-.15,0-.29-.01-.42.17.1.33.19.47.25.15.07.28.12.4.15.08.02.15.04.21.06.06.01.11.02.16.03.05,0,.1.02.14.02-.03.09-.07.2-.1.34-.03.14-.07.29-.1.46.14.02.28.03.41.03.13,0,.24-.02.34-.04Z"/>
                <path class="cls-39" d="m82.35,198.38s0,0,0,0c-.04-.01-.08-.02-.13-.04-.04-.01-.09-.03-.15-.04l-.3-.09c-.12-.03-.25-.07-.39-.12-.15-.05-.32-.1-.49-.15l-.1-.03s-.03-.01-.03-.03c0-.01,0-.03,0-.04.12-.35.21-.72.29-1.12.08-.4.14-.8.19-1.19l.04-.31c-.13-.05-.26-.09-.39-.13-.15-.05-.28-.09-.4-.12-.02,0-.03-.02-.04-.03,0-.02,0-.03,0-.05,0,0,.02-.03.03-.06,0-.03.02-.06.03-.1,0-.03.01-.07.02-.1,0-.03,0-.06.01-.09.01-.1.02-.2.02-.3,0-.1,0-.21,0-.31,0-.02.01-.04.03-.05.02,0,.04,0,.06.01.1.09.21.18.34.27.11.07.23.14.34.2,0-.14,0-.28,0-.41,0-.15,0-.29-.01-.42,0-.02,0-.04.03-.05.02-.01.04-.01.06,0,.16.1.32.18.47.25.14.06.27.11.39.15.07.02.14.04.21.06.06.01.11.02.16.03.05,0,.1.02.13.02.02,0,.03.01.04.02,0,.01.01.03,0,.05-.03.09-.07.2-.1.33-.03.12-.06.25-.09.4.12.02.24.02.35.02.12,0,.23-.01.32-.04.02,0,.04,0,.05.01.01.01.02.03.01.05-.03.08-.05.17-.07.25-.02.08-.03.16-.04.25,0,.08-.02.17-.02.25,0,.08,0,.17,0,.26,0,.02,0,.04-.03.05-.02.01-.04.01-.06,0-.09-.06-.2-.11-.33-.16-.11-.04-.22-.08-.33-.12l-.02.19c-.03.22-.05.45-.06.67-.02.23-.03.45-.03.67,0,.21,0,.42,0,.62,0,.19.03.37.06.53,0,.02,0,.04-.02.05-.01.01-.03.02-.04.01Zm-1.49-.55l.05.02c.17.05.34.1.49.15.14.04.27.08.39.12l.3.09c.06.02.11.03.15.04.02,0,.03.01.05.02-.02-.14-.04-.29-.04-.46,0-.2-.01-.41,0-.63,0-.22.02-.45.03-.67.02-.23.04-.45.06-.68l.03-.25s.01-.03.02-.04c.01,0,.03-.01.05,0,.14.05.27.1.4.14.1.04.19.08.27.12,0-.06,0-.11,0-.17,0-.09,0-.17.02-.26.01-.09.03-.18.04-.26.01-.06.03-.11.04-.17-.08.01-.17.02-.26.02-.14,0-.28,0-.42-.03-.01,0-.03-.01-.04-.02,0-.01-.01-.03,0-.04.04-.17.07-.32.1-.46.03-.11.05-.2.08-.28-.02,0-.05,0-.07-.01-.04,0-.1-.02-.16-.03-.07-.02-.14-.04-.21-.06-.13-.04-.26-.09-.41-.16-.12-.06-.26-.12-.39-.2,0,.1,0,.21,0,.32,0,.15,0,.32-.01.5,0,.02-.01.03-.03.04-.02,0-.03,0-.05,0-.14-.07-.29-.16-.43-.25-.1-.07-.19-.13-.27-.2,0,.07,0,.13,0,.2,0,.1-.01.21-.02.31,0,.02,0,.05-.01.09,0,.04-.01.07-.02.11,0,.04-.02.07-.03.11,0,0,0,.02,0,.02.1.03.22.06.35.1.14.05.29.09.43.15.02,0,.04.03.04.06l-.04.35c-.05.39-.11.8-.19,1.2-.07.38-.17.74-.28,1.08Z"/>
              </g>
            </g>
          </g>
        </g>
        <rect class="cls-38" x="78.09" y="83.78" width="100.41" height="75.75" rx="23.56" ry="23.56"/>
        <path class="cls-1" d="m154.93,83.78h-53.28c-13.02,0-23.57,10.55-23.57,23.57v28.61c0,13.02,10.55,23.57,23.57,23.57h53.28c13.02,0,23.56-10.55,23.56-23.57v-28.61c0-13.02-10.55-23.57-23.56-23.57Zm20.87,52.18c0,11.5-9.36,20.87-20.87,20.87h-53.28c-11.5,0-20.87-9.36-20.87-20.87v-28.61c0-11.51,9.36-20.87,20.87-20.87h53.28c11.5,0,20.87,9.36,20.87,20.87v28.61Z"/>
        <g>
          <circle class="cls-45" cx="106.6" cy="74.11" r="6.16"/>
          <g>
            <circle class="cls-47" cx="106.6" cy="74.11" r="5.19"/>
            <path class="cls-43" d="m107.21,79.45c-2.95.34-5.62-1.79-5.95-4.73s1.79-5.62,4.73-5.95,5.62,1.79,5.95,4.73c.34,2.95-1.79,5.62-4.73,5.95Zm-1.18-10.32c-2.75.31-4.72,2.8-4.41,5.55s2.8,4.72,5.55,4.41,4.72-2.8,4.41-5.55c-.31-2.75-2.8-4.72-5.55-4.41Z"/>
          </g>
          <path class="cls-43" d="m105.02,77.35c-.14.02-.3-.03-.47-.14-.31-.2-.57-.48-.74-.81-.05-.09-.01-.2.08-.25.09-.05.2-.01.25.08.14.27.35.5.61.67.11.07.21.1.26.07.05-.03.08-.15.09-.19.04-.17.07-.35.09-.52,0-.03,0-.07,0-.11.02-.25.04-.53.25-.6.3-.11.51.18.66.39.04.06.08.11.12.15.15.17.3.33.47.49.04.04.06.05.07.06.26-.16.38-.45.44-.67.04-.15.06-.3.09-.45l.02-.13c.02-.14.12-.25.25-.3.13-.05.27-.03.38.06.11.09.22.19.33.29.22.2.42.4.67.48.23-.47.38-.99.4-1.45,0-.1.09-.18.19-.18.1,0,.18.09.18.19-.02.52-.19,1.1-.47,1.63-.03.05-.07.12-.15.15-.11.05-.21.02-.25,0-.34-.11-.59-.34-.83-.57-.1-.09-.2-.19-.3-.27h-.22s.18.02.18.02l-.02.13c-.03.16-.05.33-.1.49-.11.41-.31.71-.59.87-.05.03-.11.06-.2.07-.16,0-.28-.11-.34-.16-.17-.16-.33-.33-.48-.5-.05-.05-.09-.11-.14-.18-.05-.07-.16-.21-.22-.25-.02.07-.03.2-.03.27,0,.04,0,.09-.01.13-.02.19-.05.38-.1.57-.04.15-.09.32-.25.42-.06.03-.12.05-.18.06Z"/>
          <ellipse class="cls-43" cx="104.37" cy="73.46" rx=".67" ry="1.06" transform="translate(-19.82 44.05) rotate(-21.81)"/>
          <ellipse class="cls-43" cx="107.66" cy="72.37" rx=".67" ry="1.06" transform="translate(-16.12 33.56) rotate(-16.5)"/>
        </g>
        <g>
          <circle class="cls-45" cx="95.43" cy="186.06" r="6.16"/>
          <g>
            <circle class="cls-42" cx="95.43" cy="186.06" r="5.19"/>
            <path class="cls-43" d="m92.61,190.64c-2.53-1.55-3.32-4.87-1.77-7.4s4.87-3.32,7.4-1.77,3.32,4.87,1.77,7.4-4.87,3.32-7.4,1.77Zm5.44-8.85c-2.35-1.45-5.45-.71-6.89,1.65s-.71,5.45,1.65,6.89,5.45.71,6.89-1.65.71-5.45-1.65-6.89Z"/>
          </g>
          <ellipse class="cls-43" cx="94.08" cy="184.17" rx="1.06" ry=".67" transform="translate(-109.06 222.93) rotate(-73.75)"/>
          <ellipse class="cls-43" cx="97.33" cy="185.34" rx="1.06" ry=".67" transform="translate(-110.81 207.72) rotate(-68.43)"/>
          <path class="cls-43" d="m91.6,186.53s0,0-.01,0c-.06-.05-.07-.13-.02-.19.05-.06.13-.07.19-.02,0,0,0,0,0,0,.09.07.23.1.34.06.11-.04.21-.14.23-.26.02-.07.09-.12.16-.1.07.02.12.09.1.16-.05.21-.21.39-.41.46-.2.07-.43.03-.59-.1Z"/>
          <path class="cls-43" d="m97.86,188.1s-.06-.05-.08-.09c-.12-.16-.13-.38-.02-.54.04-.06.12-.08.19-.04.06.04.08.12.04.19-.04.07-.04.17.01.24.05.07.15.1.23.08.07-.02.15.02.17.09.02.07-.02.15-.09.17-.15.04-.31,0-.43-.09Z"/>
          <path class="cls-43" d="m93.35,188.07c-.16-.13-.32-.27-.46-.42-.31-.32-.57-.68-.77-1.08-.03-.07,0-.15.06-.18.07-.03.15,0,.18.06.19.37.43.72.73,1.02.34.35.74.64,1.19.87.43.22.83.34,1.21.35.3.01.63-.03,1.01-.15.55-.16.96-.39,1.26-.68.05-.05.14-.06.19,0,.05.05.05.14,0,.19-.33.33-.78.58-1.37.75-.41.12-.77.17-1.1.16-.42-.02-.85-.14-1.32-.38-.29-.15-.55-.32-.8-.51Z"/>
        </g>
        <g>
          <polygon class="cls-46" points="176.73 81.65 180.15 78.9 181.66 86.17 184.44 83.94 185.94 97.96 182.95 90.17 179.52 92.93 176.73 81.65"/>
          <path class="cls-45" d="m186.67,101.01l-3.9-10.18-3.5,2.81-3-12.15,4.14-3.33,1.5,7.27,2.84-2.28,1.91,17.85Zm-3.54-11.51l2.07,5.4-1.09-10.19-2.72,2.18-1.5-7.27-2.71,2.17,2.57,10.41,3.38-2.71Z"/>
        </g>
        <g>
          <path class="cls-36" d="m113.78,167.08v-2.07c0-.1,0-.21-.01-.32,0-.11-.02-.22-.03-.33h.53l.05.57h-.06c.08-.2.21-.36.38-.46.17-.11.37-.16.6-.16.32,0,.56.09.73.26.16.18.25.45.25.82v1.69h-.55v-1.65c0-.24-.05-.42-.14-.52s-.24-.16-.44-.16c-.23,0-.41.07-.55.21-.14.14-.21.33-.21.58v1.55h-.55Z"/>
          <path class="cls-37" d="m118.15,167.13c-.27,0-.5-.06-.7-.17-.2-.11-.35-.28-.46-.49s-.16-.46-.16-.75.05-.54.16-.75.26-.37.46-.49c.2-.11.43-.17.7-.17s.51.06.71.17.35.28.47.49c.11.21.16.46.16.75s-.05.54-.16.75c-.11.21-.26.37-.47.49s-.44.17-.71.17Zm0-.43c.24,0,.43-.08.57-.25s.21-.41.21-.74-.07-.57-.21-.73-.33-.25-.57-.25-.42.08-.56.25-.21.41-.21.73.07.57.21.74.33.25.56.25Z"/>
          <path class="cls-17" d="m120.88,167.08l-1.17-2.72h.58l.92,2.28h-.16l.93-2.28h.56l-1.17,2.72h-.5Z"/>
          <path class="cls-14" d="m124.1,167.13c-.27,0-.5-.06-.7-.17s-.35-.28-.46-.49c-.11-.21-.16-.46-.16-.75s.05-.54.16-.75c.11-.21.26-.37.46-.49s.43-.17.7-.17.51.06.71.17c.2.11.35.28.46.49s.16.46.16.75-.05.54-.16.75-.26.37-.46.49c-.2.11-.44.17-.71.17Zm0-.43c.24,0,.43-.08.57-.25s.21-.41.21-.74-.07-.57-.21-.73-.33-.25-.57-.25-.42.08-.56.25-.21.41-.21.73.07.57.21.74.33.25.56.25Z"/>
          <path class="cls-15" d="m127.3,168.29c-.24,0-.47-.03-.67-.09-.2-.06-.38-.14-.54-.26l.14-.4c.11.08.22.14.33.18.11.05.22.08.34.1s.24.03.37.03c.26,0,.45-.07.59-.2.13-.13.2-.32.2-.57v-.73h.05c-.06.2-.18.36-.35.48-.18.12-.38.18-.62.18-.25,0-.46-.05-.65-.16-.18-.11-.32-.27-.42-.47-.1-.2-.15-.44-.15-.72s.05-.52.15-.72c.1-.2.24-.36.42-.47.18-.11.4-.16.65-.16s.44.06.62.18c.17.12.29.28.35.48l-.05-.04.05-.56h.53c-.01.11-.03.22-.03.33,0,.11-.01.22-.01.32v2.02c0,.41-.11.72-.33.94-.22.22-.54.32-.96.32Zm-.04-1.7c.24,0,.43-.08.57-.24.14-.16.21-.39.21-.69s-.07-.52-.21-.68c-.14-.16-.33-.24-.57-.24s-.44.08-.58.24c-.14.16-.21.39-.21.68s.07.52.21.69c.14.16.34.24.58.24Z"/>
          <path class="cls-16" d="m130.42,167.13c-.24,0-.45-.06-.63-.17-.18-.11-.32-.27-.42-.49-.1-.21-.15-.46-.15-.76s.05-.55.15-.76.24-.37.42-.48c.18-.11.39-.17.63-.17s.44.06.62.18c.18.12.29.28.35.49h-.06l.05-.62h.53c-.01.11-.02.22-.03.33,0,.11-.01.22-.01.32v2.07h-.55v-.61h.06c-.06.2-.18.36-.35.48s-.38.18-.61.18Zm.14-.43c.23,0,.42-.08.56-.25s.21-.41.21-.74-.07-.57-.21-.73-.33-.25-.56-.25-.43.08-.57.25c-.14.16-.21.41-.21.73s.07.57.21.74.33.25.57.25Z"/>
          <path class="cls-25" d="m132.67,167.08v-2.07c0-.1,0-.21-.01-.32,0-.11-.02-.22-.03-.33h.53l.05.57h-.06c.08-.2.19-.35.35-.46.16-.11.35-.16.56-.16s.41.05.55.16.24.27.29.49h-.09c.07-.2.19-.36.37-.47.17-.12.37-.18.6-.18.3,0,.53.09.68.26.15.18.23.45.23.82v1.69h-.55v-1.66c0-.24-.04-.41-.12-.52s-.21-.16-.39-.16c-.21,0-.37.07-.5.22s-.18.34-.18.58v1.54h-.55v-1.66c0-.24-.04-.41-.12-.52s-.21-.16-.39-.16c-.21,0-.37.07-.49.22-.12.14-.18.34-.18.58v1.54h-.55Z"/>
          <path class="cls-21" d="m138.73,167.13c-.44,0-.79-.12-1.04-.37s-.38-.59-.38-1.03c0-.28.05-.53.16-.75.11-.21.26-.38.46-.49.2-.12.42-.18.68-.18s.47.05.64.16c.17.11.3.26.39.46.09.2.14.43.14.69v.17h-2.05v-.31h1.68l-.09.07c0-.27-.06-.48-.18-.63-.12-.15-.29-.22-.52-.22-.25,0-.45.09-.58.26-.14.17-.21.42-.21.72v.05c0,.32.08.56.24.72.16.16.38.24.67.24.16,0,.31-.02.45-.07.14-.04.27-.12.4-.22l.18.37c-.13.11-.28.2-.46.26-.18.06-.37.09-.57.09Z"/>
          <path class="cls-19" d="m140.41,167.08v-2.05c0-.11,0-.22,0-.34,0-.11-.01-.23-.02-.34h.53l.06.7h-.09c.04-.17.1-.31.18-.42s.19-.19.32-.25.25-.08.39-.08c.06,0,.11,0,.15,0,.04,0,.08.01.12.02v.49c-.07-.03-.12-.04-.17-.05-.04,0-.1,0-.16,0-.16,0-.29.04-.41.11-.11.07-.2.16-.25.28-.06.12-.09.25-.09.38v1.54h-.55Z"/>
        </g>
        <g>
          <path class="cls-45" d="m167.66,202.5l-.33-.58c-.44-.77-.64-1.71-.55-2.61-.27-.35-.52-.7-.72-1.06-.93-1.61-1.32-3.47-1.11-5.25.02-.19.11-.44.42-.59,1.5-.68,2.84-1.06,4.11-1.15,1.47-.11,2.89.19,4.03.82.59-.26,1.24-.44,1.98-.56,1.1-.16,2.38-.26,3.57.23l.81.33-.95.69c-.68.47-1.19.97-1.74,1.5-.14.14-.28.27-.43.41.62,1,1.14,2.05,1.55,3.14.02.05.04.11.06.13,0,0,.08.04.12.06.19.11.39.21.53.21.13,0,.32-.1.49-.19l2.99-1.55c.18-.09.52-.22.87-.11.21.07.38.22.48.41.11.22.17.57-.16,1.01-.65.88-1.28,1.79-1.85,2.71-.18.28-.33.54-.4.79-.1.35-.05.8,0,1.23.05.51.11,1.09-.03,1.65h0c-.08.31-.32.54-.64.6-.31.07-.63-.05-.83-.3-.3-.37-.49-.8-.64-1.14l-.78-1.73s-.06-.13-.08-.17c-.04,0-.14,0-.39.06-.25.06-.49.13-.74.2h-.05c-.89.25-1.88.52-2.89.64.06.5.01.99-.02,1.44l-.11,1.3-.96-.83-.24-.18c-.69-.52-1.48-1.1-2.08-1.81-.39-.08-.73-.24-.96-.36-.3-.16-.6-.33-.9-.53-.2.27-.45.53-.81.75l-.57.35Zm-1.77-9.26c-.15,1.54.2,3.14,1,4.53.21.36.47.73.76,1.09l.14.17-.03.21c-.09.62,0,1.28.24,1.86.18-.17.32-.37.49-.64l.28-.45.43.32c.2.15.37.27.54.37.21.13.43.26.65.37.21.11.52.25.83.29l.2.02.13.16c.49.61,1.18,1.15,1.82,1.63.02-.38,0-.75-.09-1.1l-.17-.58.61-.04c1.1-.07,2.2-.37,3.25-.65h.05c.25-.08.5-.15.75-.21.25-.06.84-.21,1.25.13.19.15.28.37.35.53l.78,1.73c.1.22.2.45.33.67.02-.3,0-.63-.05-.97-.05-.5-.11-1.06.03-1.59.1-.38.3-.7.52-1.05.54-.86,1.12-1.71,1.72-2.53l-2.78,1.44c-.25.13-.56.29-.91.3-.39,0-.72-.16-1.03-.33-.13-.07-.28-.16-.4-.31-.11-.13-.16-.28-.21-.4-.43-1.15-1-2.26-1.68-3.3l-.24-.36.36-.31c.05-.05.11-.09.16-.14.17-.15.34-.32.51-.49.41-.4.81-.78,1.28-1.15-.7-.1-1.43-.03-2.14.08-.74.12-1.37.31-1.94.59l-.24.12-.23-.14c-1-.62-2.31-.91-3.67-.82-1.12.08-2.31.41-3.65,1Zm14.52,10.7h0s0,0,0,0h0Zm-14.5-10.83h0s0,0,0,0Z"/>
          <path class="cls-41" d="m178.29,200.86c-1.56.39-3.13.7-4.72.95.06.42.11.84.17,1.26.03.24.04.54-.16.67-.18-.32-.56-.46-.87-.67-.54-.36-.89-.97-1.43-1.33-.76-.5-1.88-.5-2.4-1.25-.22.46-.55.86-.96,1.15-.62-.86-.21-2.17-.81-3.04-.16-.24-.39-.43-.58-.65-.47-.57-.66-1.31-.79-2.04-.13-.73-.21-1.47-.24-2.21,0-.2-.01-.42.1-.59.12-.18.34-.27.54-.34,1.39-.5,2.87-1.02,4.34-.89.87.07,1.69.39,2.48.75.1.04.2.09.3.1.1,0,.2-.01.3-.04,1.21-.28,2.43-.58,3.67-.53.42.02.83.07,1.25.13-.51.26-.97.61-1.36,1.03-.15.17-.3.35-.45.52-.26.3-.56.58-.87.82.41.57.68,1.29,1.07,1.87.22.33.52.63.64,1.01.05.15.07.31.13.45.2.54.84.81,1.42.78s1.11-.3,1.62-.57c.73-.38,1.45-.75,2.18-1.13.09-.04.19-.09.27-.03.11.08.06.25-.02.37-.24.38-.51.74-.82,1.07-.14.16-.3.31-.4.5-.09.17-.14.37-.21.55-.23.61-.72,1.09-.92,1.71-.29.94.17,1.98-.06,2.93,0,.03-.01.05-.03.07-.02.02-.05.02-.07.01-.27-.02-.43-.31-.54-.56-.34-.79-.69-1.57-1.03-2.36-.09-.19-.19-.41-.4-.47-.16-.05-.22.09-.36-.01Z"/>
          <path class="cls-45" d="m166.42,194.58c.46-.04.9.16,1.29.39.16.1.32.2.48.31.34.25.65.55.99.8.21.16.44.3.66.44.53.33,1.06.66,1.65.87-.08.19-.29.29-.48.35-1.14.38-2.39.29-3.57.56-.1.02-.19.05-.29.04-.11-.01-.22-.07-.32-.12-.09-.05-.18-.1-.25-.18-.07-.08-.1-.18-.14-.27-.09-.24-.18-.48-.27-.72-.18-.49-.37-.99-.45-1.52-.03-.2-.1-.49.03-.66s.46-.26.67-.28Z"/>
          <path class="cls-45" d="m170.39,193.01c-.09,0-.18,0-.27.02-.45.09-.83.47-.95.92s.03.95.36,1.28c.12.12.27.22.43.28.16.05.33.06.5.06.15,0,.3-.02.44-.07.47-.15.79-.64.79-1.13,0-.71-.6-1.32-1.3-1.36Z"/>
          <g>
            <path class="cls-43" d="m169.47,201.1c-1.24-.79-2.29-1.86-3-3.09-.88-1.52-1.25-3.28-1.05-4.95.01-.12.07-.17.14-.2,1.44-.66,2.72-1.02,3.94-1.1,1.47-.11,2.88.21,3.97.89l-.17.27c-1.03-.64-2.37-.94-3.78-.84-1.17.08-2.41.43-3.79,1.06-.18,1.61.18,3.28,1.02,4.73.8,1.39,2.07,2.58,3.56,3.36.32.17.68.32,1.04.32v.32c-.43,0-.84-.18-1.18-.36-.24-.12-.46-.25-.69-.39Z"/>
            <path class="cls-43" d="m173.63,201.93l-.02-.32c1.15-.06,2.28-.37,3.39-.67.27-.07.53-.14.8-.21.37-.09.79-.16,1.09.09.16.13.24.32.31.47l.78,1.73c.14.32.31.68.54.97.01.02.03.01.04.01.01,0,.02-.01.02-.02.11-.42.06-.87.01-1.36-.05-.51-.11-1.03.03-1.53.1-.36.28-.67.5-1.01.59-.94,1.23-1.87,1.89-2.76.1-.13.09-.17.08-.17-.05-.02-.15,0-.26.05l-2.99,1.55c-.24.13-.52.27-.84.28-.34,0-.65-.15-.94-.31-.11-.06-.25-.14-.35-.27-.09-.11-.14-.23-.18-.35-.45-1.21-1.04-2.36-1.75-3.42l.26-.18c.72,1.09,1.32,2.26,1.78,3.48.04.1.07.2.13.26.06.07.15.13.26.19.26.15.52.28.78.27.24,0,.48-.13.7-.24l2.99-1.55c.09-.04.31-.14.49-.08.09.03.16.09.2.17.11.21-.05.43-.11.51-.66.88-1.29,1.81-1.88,2.74-.2.32-.37.61-.46.92-.12.44-.07.94-.02,1.41.05.49.1,1-.02,1.47-.03.13-.14.22-.27.25-.13.03-.27-.02-.35-.12-.25-.32-.43-.7-.58-1.04l-.78-1.73c-.06-.13-.12-.27-.22-.35-.19-.16-.51-.11-.81-.03-.26.07-.53.14-.79.21-1.12.3-2.27.61-3.45.68Z"/>
            <path class="cls-43" d="m172.75,193.06c.83-.58,1.8-.89,2.8-1.05,1.1-.16,2.25-.24,3.3.19,0,0-.24.17-.24.17-.92.64-1.54,1.31-2.33,2.05-.27.22-.53.46-.79.69.29-.43.57-.9.95-1.27.62-.62,1.28-1.22,1.99-1.73,0,0,.04.28.04.28-1.9-.58-3.88.18-5.71.66h0Z"/>
            <path class="cls-43" d="m172.99,200.15c.18.63.53,1.11.73,1.72.2.62.14,1.29.08,1.92,0,0-.03.31-.03.31,0,0-.24-.2-.24-.2-1.36-1.02-3.42-2.39-3.1-4.37.36,1.87,1.81,3.1,3.31,4.13,0,0-.26.11-.26.11.05-.62.11-1.24-.07-1.8-.23-.55-.51-1.19-.43-1.82h0Z"/>
            <path class="cls-43" d="m167.83,201.82l-.08-.14c-.45-.78-.61-1.74-.45-2.63l.31.06c-.14.76-.02,1.58.33,2.27.33-.24.54-.56.76-.94l.27.16c-.28.47-.53.85-1.01,1.14l-.14.09Z"/>
            <path class="cls-43" d="m169.62,195.55c-.67-.42-.87-1.31-.45-1.98s1.31-.87,1.98-.45.87,1.31.45,1.98-1.31.87-1.98.45Zm1.36-2.16c-.52-.33-1.21-.17-1.54.35s-.17,1.21.35,1.54,1.21.17,1.54-.35.17-1.21-.35-1.54Z"/>
            <path class="cls-43" d="m172.57,195.54c.52.38.76,1.02.77,1.64,0,.21-.03.42-.12.63h-.03c-.1-.95-.38-1.51-.62-2.27h0Z"/>
            <path class="cls-43" d="m173.51,195.79c.65.35.95,1.57.42,2.09.05-.71-.11-1.44-.45-2.07,0,0,.03-.02.03-.02h0Z"/>
            <path class="cls-43" d="m166.81,198.46l-.02-.32c1.43-.07,3.06-.16,4.49-.74-1.01-.26-1.86-.89-2.43-1.36l-.24-.2c-.54-.45-1.09-.92-1.75-1.07-.19-.04-.36-.05-.51-.03-.23.04-.45.17-.59.37l-.26-.18c.19-.26.47-.44.79-.5.19-.03.4-.02.63.03.74.17,1.32.66,1.88,1.14l.24.2c.98.81,1.82,1.24,2.66,1.37l.21.03-.09.19c-.08.16-.24.23-.33.27-1.51.64-3.2.72-4.69.8Z"/>
            <path class="cls-43" d="m165.88,196.65l.19-.42c.05-.12.14-.3.32-.38l.06-.03.06.02c.16.06.24.21.28.3.08.16.16.33.23.5.12-.1.24-.19.36-.27.13-.09.31-.2.52-.25.04-.01.1-.02.16,0,.1.02.15.1.18.13.22.28.45.54.71.79.01,0,.03.03.04.03,0,0,.04,0,.06,0,.38-.02.75.03,1.11.08l1.32.18-.04.31-1.32-.18c-.34-.05-.7-.1-1.05-.08-.06,0-.13,0-.21-.02-.06-.03-.11-.07-.14-.1-.26-.26-.51-.53-.74-.82,0,0,0,0-.01-.01-.17.05-.32.14-.43.21-.18.12-.34.25-.5.39l-.18.16-.08-.23c-.08-.23-.18-.46-.29-.68-.01-.02-.03-.06-.06-.09-.04.04-.07.11-.1.17l-.19.42-.29-.13Z"/>
            <circle class="cls-43" cx="170.44" cy="194.54" r=".95"/>
          </g>
        </g>
        <g>
          <rect class="cls-49" x="82.74" y="170.67" width="12.69" height="4.19" rx="2.07" ry="2.07"/>
          <path class="cls-18" d="m93.33,175.21h-8.5c-1.35,0-2.45-1.1-2.45-2.45s1.1-2.45,2.45-2.45h8.5c1.35,0,2.45,1.1,2.45,2.45s-1.1,2.45-2.45,2.45Zm-8.5-4.19c-.96,0-1.74.78-1.74,1.74s.78,1.74,1.74,1.74h8.5c.96,0,1.74-.78,1.74-1.74s-.78-1.74-1.74-1.74h-8.5Z"/>
        </g>
        <ellipse class="cls-32" cx="128.38" cy="244.24" rx="36.5" ry="5.2"/>
        <path class="cls-24" d="m194.11,166.44h0c3.75-40.33-.78-70.57-3.82-85.03-1.2-5.71-5.41-10.44-10.98-12.33-7.07-2.4-16.99-4.2-28.67-5.19-6.96-.6-14.42-.9-22.16-.9s-15.91.33-23.32,1c-11.27,1-20.82,2.69-27.6,4.89-5.62,1.83-9.88,6.53-11.12,12.28-3.07,14.3-7.61,44.32-3.67,85.29h-.02c.01.12,1.16,11.41-3.53,14.41l.38.59c2.57-1.64,3.53-5.39,3.85-8.74.82.02,7.18.19,16.93.36v-.3h0c0-2.45,1.99-4.45,4.45-4.45h8.5c2.45,0,4.45,2,4.45,4.45h0v.55c7.56.09,18.03.18,30.26.22v7.86h.7v-7.86c3.36,0,6.84.02,10.44.02,16.54,0,35.36-.12,54.26-.48.36,3.25,1.34,6.79,3.82,8.37l.38-.59c-4.68-3-3.54-14.3-3.53-14.41Zm-.75.54c-.07,1-.18,3.08.02,5.38-37.88.72-75.44.47-94.9.25-.08-2.77-2.35-5-5.14-5h-8.5c-2.7,0-4.92,2.09-5.13,4.74-9.23-.17-15.27-.32-16.2-.35.15-2.04.07-3.85,0-4.84h.03c-4.06-41.28.51-71.51,3.59-85.86,1.18-5.5,5.27-10.01,10.65-11.76,6.74-2.18,16.23-3.86,27.45-4.85,7.39-.66,15.21-.99,23.26-.99s15.16.3,22.1.9c11.62.99,21.48,2.77,28.5,5.16,5.34,1.81,9.37,6.34,10.52,11.81,3.05,14.5,7.6,44.89,3.76,85.43h0Z"/>
        <rect class="cls-20" x="128.04" y="199.53" width=".7" height="10.6"/>
        <path class="cls-27" d="m146.32,199.88h-35.9c-2.09,0-3.78-1.7-3.78-3.78v-11.28c0-2.09,1.7-3.78,3.78-3.78h35.9c2.09,0,3.78,1.7,3.78,3.78v11.28c0,2.09-1.7,3.78-3.78,3.78Zm-35.9-18.14c-1.7,0-3.08,1.38-3.08,3.08v11.28c0,1.7,1.38,3.08,3.08,3.08h35.9c1.7,0,3.08-1.38,3.08-3.08v-11.28c0-1.7-1.38-3.08-3.08-3.08h-35.9Z"/>
        <path class="cls-23" d="m147.07,185.36v9.71c0,.96-.78,1.73-1.74,1.73h-33.88c-.96,0-1.74-.77-1.74-1.73v-9.71c0-.96.78-1.74,1.74-1.74h33.88c.96,0,1.74.78,1.74,1.74Z"/>
        <path class="cls-26" d="m128.61,143.9h-.47c-4.06,0-7.35-3.29-7.35-7.35h0c0-.64.52-1.16,1.16-1.16h12.85c.64,0,1.16.52,1.16,1.16h0c0,4.06-3.29,7.35-7.35,7.35Z"/>
        <g>
          <g>
            <path class="cls-48" d="m165.27,115.33c-2.41-1.81-6.75-.15-10.1,3.7-3.33-3.8-7.63-5.45-10-3.67-2.58,1.94-1.9,7.2,1.51,11.74,2.82,3.74,6.61,5.83,9.3,5.36,2.5-.32,5.49-2.28,7.81-5.36,3.42-4.54,4.07-9.81,1.47-11.77Z"/>
            <path class="cls-22" d="m155.2,131.98c-2.53,0-5.71-2.04-8.09-5.21-3.17-4.22-3.92-9.25-1.62-10.97.54-.4,1.21-.61,1.99-.61,2.21,0,5,1.61,7.26,4.2l.41.47.41-.47c2.27-2.62,5.08-4.24,7.32-4.24.8,0,1.48.21,2.03.62,1.1.82,1.56,2.39,1.31,4.41-.27,2.13-1.29,4.47-2.89,6.59-2.15,2.86-5,4.83-7.45,5.15-.24.04-.47.06-.71.06h0Z"/>
            <path class="cls-45" d="m144.89,118.16c-.1.56.09,1.28.64,1.42.57.15,1.07-.38,1.58-.67.55-.3,1.26-.32,1.83-.05.49.23.94.67,1.47.57.6-.11.85-.91.62-1.47s-.77-.94-1.29-1.25c-1.63-.99-4.43-.89-4.87,1.45Z"/>
          </g>
          <g>
            <path class="cls-48" d="m110.88,115.33c-2.41-1.81-6.75-.15-10.1,3.7-3.33-3.8-7.63-5.45-10-3.67-2.58,1.94-1.9,7.2,1.51,11.74,2.82,3.74,6.61,5.83,9.3,5.36,2.5-.32,5.49-2.28,7.81-5.36,3.42-4.54,4.07-9.81,1.47-11.77Z"/>
            <path class="cls-29" d="m100.9,131.98c-2.53,0-5.71-2.04-8.09-5.21-3.17-4.22-3.92-9.25-1.62-10.97.54-.4,1.21-.61,1.99-.61,2.21,0,5,1.61,7.26,4.2l.41.47.41-.47c2.27-2.62,5.08-4.24,7.32-4.24.8,0,1.48.21,2.03.62,1.1.82,1.56,2.39,1.31,4.41-.27,2.13-1.29,4.47-2.89,6.59-2.15,2.86-5,4.83-7.45,5.15-.24.04-.47.06-.71.06h0Z"/>
            <path class="cls-45" d="m94.58,116.65c.71.18,1.43.44,1.98.92s.9,1.26.72,1.97c-.05.2-.14.39-.29.53-.29.28-.72.33-1.12.27-.66-.09-1.28-.42-1.94-.46-1.23-.07-3.62.84-3.27-1.34.31-1.95,2.31-2.32,3.92-1.9Z"/>
          </g>
        </g>
        <path class="cls-13" d="m174.91,107.36c0,3.82,1.1,8.51-3.09,10.6-2.45,1.23-5.4.93-8.01.1s-5.04-2.15-7.66-2.96c-2.83-.88-5.82-1.13-8.78-1.27-15.91-.73-31.96,1.91-46.8,7.7-4.53,1.77-9.11,3.86-13.97,3.92-1.08.01-2.25-.11-3.07-.82-.91-.79-1.14-2.08-1.28-3.27-.55-4.66-.17-9.32-.17-13.99,0-10.91,8.88-19.78,19.78-19.78h53.28c10.91,0,19.78,8.87,19.78,19.78Z"/>
        <path class="cls-45" d="m68.45,69.97c-.28.25-.56.52-.69.85s-.05.72.28.92c.32.19.76.13,1.14.03,2.45-.59,4.37-2.19,6.59-3.27,2.9-1.41,6.28-1.9,9.25-3.18.41-.18.83-.38,1.09-.71s.27-.81-.08-1.05c-.19-.13-.45-.17-.7-.19-1.84-.16-3.71.24-5.48.74-4.16,1.17-8.34,3.13-11.39,5.85Z"/>
        <path class="cls-45" d="m90.37,62.44c-.18.08-.37.19-.46.36-.25.48.38.95.91,1.07,1.21.28,2.48.17,3.71.06,2.75-.24,5.5-.48,8.22-.94.15-.03.3-.06.46-.09.99-.24.94-1.67-.07-1.84-.41-.07-.82-.1-1.23-.12-3.64-.2-8.16-.07-11.55,1.5Z"/>
        <g>
          <path class="cls-49" d="m115.98,183.62v13.17h-4.52c-.96,0-1.74-.77-1.74-1.73v-9.71c0-.96.78-1.74,1.74-1.74h4.52Z"/>
          <path class="cls-49" d="m140.81,196.79v-13.17h4.52c.96,0,1.74.77,1.74,1.73v9.71c0,.96-.78,1.74-1.74,1.74h-4.52Z"/>
          <rect class="cls-49" x="116.97" y="183.62" width="6.96" height="13.17"/>
          <rect class="cls-49" x="124.92" y="183.62" width="6.96" height="13.17"/>
          <rect class="cls-49" x="132.9" y="183.62" width="6.96" height="13.17"/>
        </g>
        <g>
          <path class="cls-30" d="m151.7,152.18s-.03.02-.04.03c-.95.72-2.31.54-3.03-.41l-2.69-3.54c-.72-.95-.53-2.3.41-3.03.95-.72,2.31-.54,3.03.41l2.69,3.54c.71.94.54,2.27-.37,3Z"/>
          <path class="cls-28" d="m146.72,157.43c-.78.62-1.91.64-2.71-.01l-1.49-1.21c-.93-.75-1.07-2.11-.32-3.04.76-.93,2.12-1.07,3.04-.31l1.49,1.21c.93.75,1.07,2.11.32,3.04-.1.12-.21.23-.33.33Z"/>
          <path class="cls-12" d="m158.09,148.85c-.22.18-.49.32-.78.4-1.15.31-2.34-.37-2.65-1.52l-.76-2.8c-.31-1.15.37-2.34,1.52-2.66s2.34.37,2.65,1.52l.76,2.8c.23.86-.08,1.74-.74,2.26Z"/>
          <path class="cls-4" d="m170.38,151.94c-.92.74-2.27.6-3.02-.32-.76-.92-.62-2.29.3-3.04l1.43-1.17s.01-.01.02-.02c.92-.74,2.27-.6,3.02.32.76.92.62,2.29-.3,3.04l-1.43,1.17s-.01.01-.02.02Z"/>
          <g>
            <circle class="cls-6" cx="159.35" cy="162.58" r="12.09"/>
            <path class="cls-7" d="m171.39,163.62c-.58,6.65-6.44,11.57-13.09,11-5.03-.44-9.08-3.9-10.5-8.44,2.3,1.98,5.23,3.28,8.48,3.56,6.56.57,12.49-3.16,15.03-8.86.13.89.16,1.81.08,2.74Z"/>
            <path class="cls-45" d="m151.94,154.87c-.17.19-.35.43-.32.69.04.39.54.59.92.49s.68-.4.98-.65c.39-.33.82-.61,1.28-.83.34-.16.7-.3.96-.57s.35-.74.1-1.01c-.22-.23-.59-.23-.9-.17-1.15.22-2.25,1.2-3.01,2.05Z"/>
            <path class="cls-45" d="m150.4,158.49c.09,0,.18-.04.25-.09.37-.25,1.13-1.84.23-1.63-.49.12-1.25,1.7-.48,1.72Z"/>
          </g>
        </g>
        <g>
          <path class="cls-5" d="m105.25,152.18s.03.02.04.03c.95.72,2.31.54,3.03-.41l2.69-3.54c.72-.95.53-2.3-.41-3.03-.95-.72-2.31-.54-3.03.41l-2.69,3.54c-.71.94-.54,2.27.37,3Z"/>
          <path class="cls-3" d="m110.22,157.43c.78.62,1.91.64,2.71-.01l1.49-1.21c.93-.75,1.07-2.11.32-3.04-.76-.93-2.12-1.07-3.04-.31l-1.49,1.21c-.93.75-1.07,2.11-.32,3.04.1.12.21.23.33.33Z"/>
          <path class="cls-9" d="m98.85,148.85c.22.18.49.32.78.4,1.15.31,2.34-.37,2.65-1.52l.76-2.8c.31-1.15-.37-2.34-1.52-2.66s-2.34.37-2.65,1.52l-.76,2.8c-.23.86.08,1.74.74,2.26Z"/>
          <path class="cls-11" d="m86.56,151.94c.92.74,2.27.6,3.02-.32.76-.92.62-2.29-.3-3.04l-1.43-1.17s-.01-.01-.02-.02c-.92-.74-2.27-.6-3.02.32-.76.92-.62,2.29.3,3.04l1.43,1.17s.01.01.02.02Z"/>
          <g>
            <circle class="cls-8" cx="97.59" cy="162.58" r="12.09"/>
            <path class="cls-10" d="m85.64,164.34c.98,6.6,7.12,11.16,13.73,10.19,5-.74,8.83-4.44,9.97-9.06-2.18,2.11-5.02,3.59-8.25,4.07-6.51.96-12.66-2.4-15.54-7.94-.08.89-.05,1.81.09,2.74Z"/>
            <path class="cls-45" d="m95.63,152.44c.26-.05.55-.08.76.08.32.24.23.77-.05,1.04s-.69.38-1.06.51c-.48.17-.94.39-1.37.68-.31.21-.61.45-.98.53s-.82-.08-.92-.44c-.09-.31.11-.62.32-.86.78-.87,2.18-1.32,3.3-1.54Z"/>
            <path class="cls-45" d="m99.52,152.98c-.04.08-.13.13-.21.17-.4.19-2.16.03-1.51-.64.35-.36,2.1-.2,1.72.47Z"/>
          </g>
        </g>
      </g>
    </g>
  </g>
</svg>